<svg width="117" height="104" viewBox="0 0 117 104" fill="none" xmlns="http://www.w3.org/2000/svg">
<path d="M36.0593 76.1653C38.992 76.1653 41.6439 77.7354 43.5687 80.2499C45.4654 82.7425 46.652 86.1691 46.652 89.9634C46.652 93.7281 45.4643 97.1805 43.5687 99.6731C41.6439 102.182 38.9931 103.75 36.0593 103.75C33.1254 103.75 30.4758 102.182 28.5453 99.6731C26.6475 97.1805 25.4688 93.7281 25.4688 89.9634C25.4688 86.1691 26.6475 82.7412 28.5453 80.2499C30.4758 77.7354 33.1254 76.1653 36.0593 76.1653ZM36.0593 77.4916C33.4726 77.4916 31.1152 78.8901 29.4263 81.1027C27.6947 83.3656 26.6115 86.5097 26.6115 89.9647C26.6115 93.4094 27.6947 96.5316 29.4263 98.792C31.1152 101.023 33.4737 102.438 36.0593 102.438C38.6437 102.438 40.9966 101.021 42.6945 98.792C44.4305 96.5316 45.507 93.4094 45.507 89.9647C45.507 86.5097 44.4305 83.3656 42.6945 81.1027C40.9955 78.8901 38.6426 77.4916 36.0593 77.4916Z" fill="white"/>
<path d="M35.7267 75.3035L37.1313 75.2661C37.6032 75.3035 38.1336 75.3874 38.6808 75.5616C41.3664 76.2866 44.3812 78.3057 45.7374 80.5209V80.5441L46.1554 81.2976L46.5543 82.1542C47.2184 83.7489 47.7611 85.6918 47.8667 87.0323V87.0478L48.0746 88.2425L48.3061 89.8371C48.3612 90.5402 48.5095 90.5647 48.732 90.5957L49.8557 90.9414L49.3489 92.1232L48.5938 91.9116C47.8151 91.8033 47.3207 91.74 47.16 89.9635L46.942 88.5418L46.7386 87.1807V87.1536C46.6262 85.9589 46.1318 84.1901 45.5172 82.7438L45.1452 81.9427L44.8082 81.2769H44.7891V81.2563L35.7267 75.3035ZM44.7891 81.2563C43.5856 79.2862 40.8585 77.5123 38.4033 76.8336L44.7891 81.2563Z" fill="white"/>
<path d="M34.9901 55.7629L35.0362 55.7358L35.5328 55.8262L35.7272 55.8687L35.8587 55.892L36.7835 56.6028L37.3464 57.4492L37.6397 58.2555V58.2736L37.461 60.0552L36.5149 61.3906L35.8587 61.7286L35.371 61.797L33.8923 61.2654C33.4361 60.9055 33.0675 60.361 32.9439 59.6501L32.8799 59.0876C32.8799 58.0904 33.2866 56.9151 33.935 56.2674L34.4159 55.9294L34.9901 55.7629ZM35.0575 57.0802L34.8935 57.1176L34.6879 57.2814C34.2687 57.662 34.0373 58.4103 34.0373 59.0851L34.0732 59.3999L34.5238 60.1714L35.3699 60.4642L35.6182 60.4268L35.88 60.3055L36.397 59.5095L36.5284 58.5393L36.397 58.1936L36.3902 58.1665L35.9486 57.4762L35.6351 57.1834L35.2868 57.1176L35.0575 57.0802Z" fill="white"/>
<path d="M35.4736 62.3801C33.4353 62.0124 32.733 63.4819 32.5026 65.301C32.3745 66.3538 32.3745 67.5433 32.3745 68.6089L32.3543 69.8836V69.9094C32.3183 70.8796 32.2644 72.1968 32.5026 73.2586C32.7195 74.1759 33.1836 74.9591 34.1173 75.1177H34.142L34.687 75.1861L35.2511 75.2068C36.168 75.1565 37.0816 74.8107 37.6591 73.8844H37.6378L37.6591 73.8715C38.4468 72.5684 38.1513 69.2024 37.949 67.0427L37.8805 66.0402C37.8108 64.8352 37.6018 63.9993 37.2243 63.4303C36.8624 62.8962 36.2961 62.5659 35.4736 62.3801ZM31.3745 65.0959C31.7037 62.5788 32.6846 60.5571 35.6365 61.0641L35.6478 61.0771C36.7804 61.3286 37.5872 61.8073 38.1333 62.624C38.667 63.4277 38.9334 64.4908 39.0255 65.9319L39.1075 66.915C39.321 69.2579 39.6502 72.9245 38.5873 74.6378C37.7771 75.9808 36.5265 76.4569 35.3118 76.5176L34.614 76.4995L33.9589 76.4388V76.4182V76.4414C32.4442 76.1666 31.7172 74.9977 31.4138 73.5915C31.1138 72.3194 31.17 70.8951 31.2059 69.8423L31.2295 68.6102C31.2295 67.5046 31.2295 66.2699 31.3745 65.0959Z" fill="white"/>
<path d="M33.5077 62.8963L33.1357 63.4407L32.7896 64.0509C32.1873 65.1166 31.6997 66.3771 31.4862 67.4002L31.0446 68.9277L30.985 69.0941L31.5379 68.2349V68.2117L32.5166 66.5383C33.0346 65.7268 33.5526 64.865 33.8448 64.087L33.8661 64.0522L34.201 63.2781L34.7257 61.6628H35.8808C35.8808 62.4872 35.5314 63.202 35.2156 63.8806L34.91 64.5967L34.8931 64.6392C34.5605 65.5385 33.9942 66.439 33.4515 67.2982L32.5334 68.8658C32.4154 69.1148 31.5851 70.3933 31.0086 71.068L30.5457 71.5222L29.5681 71.3841L29.4434 70.8823C29.4434 69.9934 29.713 69.2038 29.967 68.4452L30.3524 67.1318L30.376 67.1047C30.6064 65.9526 31.1491 64.5592 31.8109 63.3401L32.2121 62.6718L32.6199 62.0615L33.5077 62.8963Z" fill="white"/>
<path d="M36.8625 62.9362H36.8389L37.1614 62.2731L37.3816 61.7944C38.6659 62.5659 39.811 64.1709 40.6998 65.4739L41.0324 65.9126L41.2302 66.2055C41.928 67.2079 41.974 67.2969 41.5493 69.076C41.3976 69.6604 40.911 70.4952 40.4301 71.2886L39.6626 72.6949L39.1525 73.9902L39.5907 74.136L40.229 75.0804H39.0828L38.8963 75.1862L37.9704 73.936V73.9128L38.0277 73.6161L38.5727 72.3943L38.6424 72.1014L39.4828 70.5623C39.9042 69.8411 40.3312 69.0928 40.4301 68.7148C40.7268 67.5859 40.6897 67.5433 40.3312 67.0415L40.1335 66.7486H40.1256L39.811 66.2854C38.9806 65.0959 37.9142 63.6019 36.8625 62.9362Z" fill="white"/>
<path d="M82.2915 74.9965L82.3612 76.1279L82.3713 76.3124L82.1151 76.5214L81.4555 77.4284C80.1858 79.4345 78.6823 83.0495 78.5351 84.1229V84.1436C77.9991 87.4954 79.9656 90.8343 81.9095 94.0223C81.9421 92.9127 81.9544 91.7761 81.9544 90.7079C81.9544 88.183 82.0803 85.666 82.2117 83.1412C82.3365 80.6267 82.4634 78.116 82.4634 75.6428H83.6096C83.6096 78.1999 83.4849 80.7105 83.3534 83.2224C83.2388 85.7318 83.1017 88.2424 83.1017 90.7092C83.1017 92.1606 83.0657 93.6249 83.0062 95.084L82.9736 95.8427L83.3231 96.4271C85.6827 100.414 85.2097 100.97 83.2174 103.402L82.8455 103.84L81.8645 103.402V102.883V102.248L81.805 100.805L81.7589 99.3183V99.3029C81.7589 98.2901 81.7915 97.2644 81.8286 96.2155L81.078 94.986C78.9879 91.5233 76.7979 87.8644 77.4002 83.9333C77.5632 82.7438 79.1711 78.7779 80.5453 76.653L81.3308 75.5667L82.2915 74.9965ZM82.996 101.697C83.7725 100.651 83.8883 99.9583 82.9163 98.1469L82.9028 99.3016V99.317L82.9601 100.731L82.996 101.697Z" fill="white"/>
<path d="M82.7061 62.0136C80.6813 61.6614 79.9869 63.1193 79.7599 64.9423C79.6217 65.9925 79.6217 67.1846 79.6217 68.258L79.6082 69.5223V69.5494C79.5723 70.5196 79.5161 71.8343 79.7599 72.8986C79.9644 73.8134 80.4285 74.5965 81.3668 74.7578L81.9432 74.8236H82.4859C83.4107 74.7836 84.3265 74.4507 84.8939 73.5076C85.6929 72.2045 85.4052 68.8463 85.2086 66.6788L85.113 65.6983V65.6751C85.031 64.4882 84.8366 63.6444 84.4748 63.0793C84.1074 62.5388 83.5399 62.2059 82.7061 62.0136ZM78.625 64.7436C78.9509 62.2239 79.9318 60.201 82.8916 60.7196H82.9039C84.0377 60.9712 84.813 61.4576 85.367 62.2742C85.9097 63.0651 86.167 64.1334 86.2592 65.5758L86.3513 66.564C86.5491 68.9095 86.8873 72.5684 85.8311 74.2649C85.0209 75.6028 83.7736 76.0763 82.532 76.1524H81.8634L81.2016 76.0647C79.6779 75.8105 78.97 74.6403 78.634 73.2199C78.3475 71.9401 78.4036 70.5235 78.4632 69.4759L78.4733 68.2619C78.4733 67.1394 78.4733 65.9125 78.625 64.7436Z" fill="white"/>
<path d="M80.7508 62.5388L80.3957 63.0833L80.0238 63.6961C79.4473 64.7592 78.9473 66.0171 78.7304 67.0427L78.2888 68.5703L78.2428 68.7161L78.7832 67.8839V67.8581L79.7698 66.1771C80.2799 65.3656 80.8137 64.5115 81.0991 63.7503L81.1126 63.6948L81.4463 62.9233L81.9553 61.3029H83.1026C83.1026 62.1247 82.779 62.8549 82.4644 63.5477L82.1554 64.2251L82.1419 64.2754C81.7924 65.1772 81.2519 66.0841 80.7069 66.9343L79.7968 68.5071C79.6653 68.7535 78.8304 70.0346 78.254 70.7016L77.8068 71.1648L76.8191 71.0138L76.6943 70.5197C76.6943 69.6424 76.9595 68.8464 77.2146 68.0658L77.6068 66.7628L77.6202 66.7473C77.854 65.5887 78.4068 64.1967 79.0552 63.0007L79.4574 62.3298L79.8642 61.6976L80.7508 62.5388Z" fill="white"/>
<path d="M83.2871 55.8262C83.9344 56.0107 84.2928 56.6402 84.4546 57.3653C84.5928 57.9807 84.6389 58.6451 84.6389 59.1496C84.6389 60.2127 84.013 60.9029 83.24 61.2228L82.3939 61.3867L81.5399 61.2228C80.814 60.9274 80.2432 60.2681 80.2432 59.1496L80.6263 57.5343L81.2061 56.7009L82.4995 55.99L82.9635 55.8468L83.2871 55.8262ZM83.358 57.7304L83.1006 57.1834L82.777 57.2737L82.0242 57.6337L81.6286 58.1652L81.5826 58.2336L81.3882 59.1483L81.9208 59.9843L82.3691 60.0643L82.8692 59.9585L83.4815 59.147L83.358 57.7304Z" fill="white"/>
<path d="M84.082 62.5788L84.418 61.9131L84.6382 61.4344C85.9091 62.206 87.0451 63.8161 87.9463 65.1165L88.2587 65.5552V65.5759L88.4565 65.8481C89.1509 66.8557 89.2071 66.9369 88.7677 68.7161C88.6171 69.2824 88.1317 70.1378 87.6564 70.9364L86.9159 72.3349L86.8935 72.3195L86.3855 73.6174L86.8361 73.7786L87.471 74.7204H86.3237L86.1271 74.8262L85.2147 73.5541L85.2742 73.2587L85.817 72.0485L85.8731 71.7312L86.7193 70.201C87.1339 69.485 87.562 68.7419 87.6541 68.3561C87.944 67.235 87.9115 67.1847 87.562 66.6802L87.3642 66.3874L87.0541 65.9306C86.2248 64.7437 85.1607 63.2536 84.082 62.5788Z" fill="white"/>
<path d="M87.4757 100.092L88.4567 100.571L88.887 101.726L88.4567 102.882L87.4757 103.336L86.4902 102.882L86.0947 101.726L86.4902 100.571L87.4757 100.092ZM87.4757 100.316L86.643 100.728L86.2936 101.723L86.643 102.709L87.4757 103.107L88.3184 102.709L88.6645 101.723L88.3184 100.728L87.4757 100.316Z" fill="white"/>
<path d="M87.598 101.597L87.8946 101.514L87.9935 101.221L87.8452 100.928L87.6373 100.891H87.0586V101.597H87.598ZM86.8047 100.632H87.6373L87.9722 100.714L88.2239 101.203L88.1542 101.496L87.9722 101.678L88.1329 101.834L88.1913 102.077L88.2171 102.354L88.2239 102.539L88.2947 102.673V102.713H88.007L87.9722 102.617V102.486L87.9475 102.128L87.8261 101.846L87.5991 101.835H87.0609V102.713H86.8058V100.632H86.8047Z" fill="white"/>
<path d="M60.7878 57.3279L60.5451 57.8749L60.417 59.2992L61.0193 60.0979L61.4968 60.201L61.9676 60.1056L62.4778 59.2992L62.2834 58.3819L62.2452 58.3161L61.8429 57.7846L61.1125 57.4389L60.7878 57.3279ZM59.445 57.5395C59.6304 56.8093 59.9686 56.2016 60.6159 56.012L60.9249 56.0352L61.38 56.1887L62.6374 56.866L63.216 57.6904L63.6048 59.298C63.6048 60.3869 63.0531 61.0641 62.3284 61.3286L61.4957 61.4951L60.6631 61.3286C59.8922 61.0383 59.2832 60.343 59.2832 59.298L59.445 57.5395Z" fill="white"/>
<path d="M61.5619 62.166C59.5607 61.8254 58.8853 63.2768 58.6482 65.0482C58.5224 66.0984 58.5224 67.2711 58.5224 68.3135L58.5033 69.574V69.5921C58.4639 70.5365 58.4078 71.8369 58.6482 72.8807C58.8651 73.8005 59.3056 74.5591 60.245 74.7204L60.7978 74.7862H61.3405C62.2439 74.7462 63.144 74.4082 63.7137 73.4857C64.4991 72.2085 64.1991 68.9096 64.0002 66.7654L63.9339 65.7874C63.8643 64.6108 63.6542 63.7735 63.2957 63.202C62.9283 62.6872 62.3676 62.3492 61.5619 62.166ZM57.5392 64.8637C57.8448 62.3789 58.8325 60.3856 61.7237 60.89H61.7473C62.8597 61.1416 63.6463 61.6228 64.1901 62.4124C64.6992 63.2007 64.9767 64.2522 65.0621 65.6804L65.1351 66.6428C65.3351 68.9406 65.6711 72.5672 64.6463 74.2405H64.6295C63.8283 75.5655 62.6035 76.0441 61.4001 76.0996L60.7192 76.0738L60.0876 75.9938H60.0708C58.5696 75.7512 57.8617 74.5979 57.5493 73.2174C57.2594 71.9569 57.319 70.561 57.3774 69.5134V68.3135C57.3763 67.235 57.3762 65.9926 57.5392 64.8637Z" fill="white"/>
<path d="M59.6303 62.6949L59.2741 63.202L58.9281 63.8174C58.3336 64.8908 57.8448 66.1009 57.6538 67.1034L57.2066 68.6103L57.1549 68.7819L57.6864 67.9484L57.701 67.9213L58.6595 66.2738C59.1595 65.4778 59.6899 64.6405 59.9697 63.8819L59.9787 63.8187L60.3023 63.0678L60.8158 61.4731H61.9451C61.9451 62.2769 61.6226 63.0058 61.3102 63.6703L61.0203 64.3683H61.0034V64.4057C60.6742 65.2855 60.1079 66.1667 59.5753 67.0234L58.6831 68.5703C58.5584 68.8296 57.7347 70.0539 57.174 70.7325L56.7144 71.1686L55.7436 71.0422L55.6211 70.5377C55.6211 69.6604 55.8987 68.9096 56.1571 68.1316L56.5313 66.8569V66.8312C56.7785 65.7023 57.3201 64.3063 57.9729 63.122L58.3583 62.4588L58.7539 61.8718L59.6303 62.6949ZM61.0192 64.3657H61.0023V64.3837L61.0192 64.3657Z" fill="white"/>
<path d="M61.0314 76.0221L59.4673 76.8181L57.9863 78.3431L57.802 78.5598L57.6065 78.8295L56.784 80.059C57.0053 81.1698 56.9357 82.3645 56.8447 83.5282L56.7525 85.2518C56.7525 86.0633 56.7267 86.9278 56.6986 87.7818C56.6829 88.6411 56.6604 89.5183 56.6604 90.3015C56.6604 91.4703 56.0682 92.0651 55.4558 92.705L54.7614 93.514L53.8164 92.8056L54.7063 91.7219L55.512 90.3002C55.512 89.4706 55.548 88.5998 55.5738 87.7354C55.6041 86.8865 55.6199 86.0221 55.6199 85.2506C55.6199 84.621 55.6637 84.0159 55.7098 83.4314C55.7794 82.2497 55.8839 81.0808 55.6401 80.1454L55.6761 79.659L56.7525 77.9857L56.966 77.6929L57.1896 77.4413V77.4258C57.6537 76.8968 58.1942 76.284 58.7965 75.7654C59.4448 75.2003 60.1808 74.7823 60.9449 74.7178L61.0314 76.0221Z" fill="white"/>
<path d="M62.244 74.825C63.0002 74.8907 63.7182 75.3294 64.3733 75.9009C64.9891 76.417 65.5218 77.0453 65.9948 77.5897L66.1937 77.8671L66.4297 78.1522L67.4747 79.8707L67.5106 80.3339C67.2904 81.2963 67.3825 82.5116 67.4747 83.6805C67.4881 84.2856 67.5443 84.8945 67.5443 85.5203C67.5443 86.3137 67.5691 87.2039 67.5825 88.0709C67.6129 88.9624 67.6365 89.8371 67.6365 90.677L68.459 92.1439L69.3512 93.2251L68.3994 93.9411L67.705 93.1012C67.1038 92.4768 66.524 91.8614 66.524 90.677C66.524 89.881 66.5027 89.0011 66.4701 88.1264C66.4499 87.2491 66.4297 86.3576 66.4297 85.5203L66.3387 83.7786C66.2465 82.5942 66.1555 81.375 66.378 80.2513L65.5554 78.9934L65.361 78.7263L65.1993 78.5148C64.7565 77.9884 64.2352 77.4014 63.698 76.9369L62.1406 76.128L62.244 74.825Z" fill="white"/>
<path d="M62.8224 62.6033L63.1348 61.9582L63.355 61.4692C64.6056 62.2459 65.7192 63.838 66.6069 65.0959L66.9271 65.5319L66.9429 65.5551L67.1272 65.8299C67.7969 66.8105 67.8553 66.893 67.4384 68.6528C67.2889 69.2217 66.8148 70.0539 66.3384 70.8525L65.5878 72.2084L65.0877 73.4857L65.5192 73.6289L66.1552 74.5591H65.0214L64.8236 74.67L63.9112 73.4328V73.4057L63.9899 73.1438L64.5236 71.9195L64.5933 71.624L65.4147 70.1197C65.808 69.4088 66.2451 68.676 66.3372 68.3006C66.6058 67.1872 66.5945 67.142 66.2451 66.6453L66.0462 66.3551L65.7383 65.9138C64.9158 64.7449 63.8753 63.278 62.8213 62.6252L62.8224 62.6033Z" fill="white"/>
<path d="M59.9966 75.4171H62.7922H63.3552V76.0622V102.71V103.36H62.7922H59.9966H59.4111V102.71V76.0622V75.4171H59.9966ZM62.2169 76.7124H60.5573V102.057H62.2169V76.7124Z" fill="white"/>
<path d="M92.8919 36.3294C92.8919 39.827 89.3568 42.6796 84.9948 42.6796C80.6361 42.6796 77.0977 39.827 77.0977 36.3294C77.0977 32.8267 80.6361 29.9845 84.9948 29.9845C89.3557 29.9845 92.8919 32.8267 92.8919 36.3294Z" stroke="white" stroke-miterlimit="10"/>
<path d="M87.1935 50.4604C87.1935 52.4589 85.2608 54.0909 82.8551 54.0909C80.4583 54.0909 78.5166 52.4576 78.5166 50.4604C78.5166 48.4594 80.4594 46.8364 82.8551 46.8364C85.2608 46.8377 87.1935 48.4607 87.1935 50.4604Z" fill="white"/>
<path d="M1 14.415C1 21.8127 8.6173 27.8183 18.019 27.8183C27.4094 27.8183 35.0301 21.814 35.0301 14.415C35.0301 7.00177 27.4105 1 18.019 1C8.6173 0.99871 1 7.00177 1 14.415Z" stroke="white" stroke-width="1.5" stroke-miterlimit="10"/>
<path d="M41.4521 14.415C41.4521 21.8127 49.0694 27.8183 58.4711 27.8183C67.8616 27.8183 75.4823 21.814 75.4823 14.415C75.4823 7.00177 67.8627 1 58.4711 1C49.0694 0.99871 41.4521 7.00177 41.4521 14.415Z" stroke="white" stroke-width="1.5" stroke-miterlimit="10"/>
<path d="M19.4541 37.1035C19.4541 40.8101 23.1925 43.8059 27.7995 43.8059C32.4111 43.8059 36.1382 40.8101 36.1382 37.1035C36.1382 33.3969 32.4122 30.4038 27.7995 30.4038C23.1925 30.4025 19.4541 33.3969 19.4541 37.1035Z" stroke="white" stroke-miterlimit="10"/>
<path d="M29.3301 50.8332C29.3301 52.9426 31.383 54.6611 33.9191 54.6611C36.4552 54.6611 38.5014 52.9426 38.5014 50.8332C38.5014 48.7135 36.4552 46.9924 33.9191 46.9924C31.383 46.9924 29.3301 48.7148 29.3301 50.8332Z" fill="white"/>
<path d="M68.8409 38.4814C68.5577 41.5029 64.8215 43.3194 60.4887 42.5028C56.1592 41.6939 52.8804 38.582 53.1635 35.5476C53.4399 32.5209 57.1784 30.725 61.5045 31.5365C65.8441 32.3403 69.1173 35.465 68.8409 38.4814Z" stroke="white" stroke-miterlimit="10"/>
<path d="M66.4413 50.4101C66.3188 52.0731 64.2704 53.1517 61.8657 52.8188C59.4588 52.4976 57.6082 50.8797 57.7239 49.2258C57.852 47.5705 59.9027 46.4816 62.3028 46.8054C64.7097 47.1525 66.5592 48.7652 66.4413 50.4101Z" fill="white"/>
<path d="M35.1962 76.5665C34.7085 76.5665 34.2006 76.6517 33.6635 76.7936C33.1253 76.96 32.5601 77.1897 31.9938 77.4916C29.0543 79.0114 26.1631 82.1284 25.6068 85.2273L25.4327 86.8349L25.2214 88.6411C25.1518 89.4706 25.0136 90.3337 24.6821 91.0149C24.2967 91.7761 23.6955 92.3077 22.7393 92.3077V90.9878L23.6877 90.3557C23.9191 89.8899 24.0348 89.2087 24.0809 88.5133C24.1371 87.8631 24.2057 87.258 24.2922 86.6568L24.4854 85.057V85.0415V84.9757C25.099 81.4627 28.3171 77.9431 31.5196 76.275C32.1443 75.955 32.7825 75.688 33.3848 75.5164C34.0186 75.3293 34.6164 75.2235 35.1984 75.2235V76.5665H35.1962Z" fill="white"/>
<path d="M81.9033 14.415C81.9033 21.8127 89.5206 27.8183 98.9223 27.8183C108.313 27.8183 115.933 21.814 115.933 14.415C115.933 7.00177 108.314 1 98.9223 1C89.5206 0.99871 81.9033 7.00177 81.9033 14.415Z" fill="white" stroke="white" stroke-width="1.5" stroke-miterlimit="10"/>
</svg>
