<svg width="591" height="674" viewBox="0 0 591 674" fill="none" xmlns="http://www.w3.org/2000/svg">
<path d="M454.466 512.411C439.441 512.411 425.856 521.56 415.995 536.212C406.278 550.736 400.199 570.703 400.199 592.812C400.199 614.749 406.284 634.866 415.995 649.39C425.856 664.012 439.436 673.146 454.466 673.146C469.496 673.146 483.07 664.012 492.96 649.39C502.683 634.866 508.721 614.749 508.721 592.812C508.721 570.703 502.683 550.729 492.96 536.212C483.07 521.56 469.49 512.411 454.466 512.411ZM454.466 520.132C467.717 520.132 479.795 528.281 488.447 541.174C497.317 554.36 502.867 572.68 502.867 592.812C502.867 612.885 497.317 631.077 488.447 644.248C479.795 657.246 467.712 665.493 454.466 665.493C441.226 665.493 429.172 657.239 420.474 644.248C411.58 631.077 406.065 612.885 406.065 592.812C406.065 572.68 411.58 554.36 420.474 541.174C429.172 528.281 441.226 520.132 454.466 520.132Z" fill="#FFFDFD"/>
<path d="M456.17 507.39L448.975 507.172C446.557 507.39 443.84 507.878 441.036 508.893C427.278 513.118 411.834 524.883 404.885 537.791V537.926L402.744 542.317L400.7 547.308C397.298 556.6 394.518 567.922 393.977 575.732V575.823L392.912 582.784L391.726 592.076C391.444 596.173 390.684 596.316 389.544 596.496L383.788 598.511L386.384 605.397L390.252 604.164C394.242 603.533 396.775 603.164 397.598 592.813L398.714 584.528L399.756 576.597V576.439C400.332 569.478 402.865 559.171 406.014 550.744L407.919 546.075L409.646 542.196H409.744V542.076L456.17 507.39ZM409.738 542.068C415.903 530.589 429.88 520.252 442.458 516.298L409.738 542.068Z" fill="#FFFDFD"/>
<path d="M459.946 393.52L459.71 393.362L457.166 393.888L456.17 394.136L455.496 394.271L450.759 398.414L447.875 403.345L446.372 408.044V408.149L447.287 418.531L452.134 426.312L455.496 428.281L457.995 428.68L465.57 425.582C467.907 423.485 469.795 420.312 470.429 416.17L470.757 412.893C470.757 407.081 468.673 400.233 465.351 396.459L462.888 394.489L459.946 393.52ZM459.595 401.203L460.435 401.421L461.489 402.375C463.636 404.593 464.822 408.953 464.822 412.885L464.638 414.719L462.329 419.215L457.995 420.921L456.722 420.703L455.381 419.997L452.733 415.358L452.06 409.705L452.733 407.69L452.768 407.532L455.03 403.511L456.636 401.804L458.421 401.421L459.595 401.203Z" fill="#FFFDFD"/>
<path d="M457.459 432.078C467.901 429.935 471.499 438.498 472.679 449.098C473.336 455.232 473.336 462.163 473.336 468.373L473.439 475.8V475.951C473.623 481.604 473.9 489.279 472.679 495.466C471.568 500.811 469.191 505.375 464.407 506.299H464.281L461.489 506.698L458.599 506.818C453.902 506.525 449.222 504.51 446.263 499.112H446.372L446.263 499.037C442.227 491.444 443.741 471.831 444.777 459.246L445.129 453.405C445.486 446.384 446.556 441.512 448.49 438.197C450.35 435.092 453.251 433.168 457.459 432.078ZM478.465 447.91C476.778 433.243 471.753 421.463 456.63 424.417L456.573 424.492C450.77 425.958 446.637 428.747 443.839 433.506C441.105 438.189 439.741 444.384 439.268 452.781L438.848 458.51C437.754 472.162 436.068 493.527 441.514 503.51C445.664 511.336 452.071 514.11 458.294 514.463L461.869 514.358L465.225 514.005C472.984 512.404 476.709 505.593 478.263 497.398C479.8 489.986 479.512 481.687 479.328 475.552L479.207 468.373C479.207 461.945 479.207 454.751 478.465 447.91Z" fill="#FFFDFD"/>
<path d="M467.534 435.092L469.439 438.265L471.212 441.82C474.298 448.03 476.796 455.375 477.89 461.336L480.152 470.222L480.457 471.192L477.625 466.185V466.05L472.611 456.299C469.957 451.571 467.303 446.549 465.807 442.016L465.697 441.813L463.982 437.302L461.294 427.89H455.376C455.376 432.694 457.166 436.859 458.784 440.813L460.349 444.985L460.436 445.233C462.14 450.473 465.041 455.721 467.821 460.727L472.525 469.861C473.129 471.312 477.383 478.762 480.336 482.694L482.708 485.34L487.716 484.536L488.355 481.611C488.355 476.432 486.973 471.831 485.672 467.411L483.698 459.758L483.577 459.6C482.397 452.886 479.617 444.767 476.226 437.663L474.171 433.769L472.081 430.213L467.534 435.092Z" fill="#FFFDFD"/>
<path d="M450.35 435.326H450.471L448.819 431.462L447.69 428.672C441.111 433.168 435.245 442.52 430.691 450.113L428.987 452.669L427.974 454.375C424.399 460.217 424.163 460.735 426.339 471.102C427.116 474.508 429.609 479.371 432.073 483.995L436.005 492.189L438.618 499.737L436.373 500.586L433.103 506.089H438.975L439.93 506.706L444.674 499.421V499.286L444.38 497.557L441.588 490.437L441.231 488.731L436.926 479.762C434.767 475.56 432.579 471.2 432.073 468.997C430.553 462.419 430.743 462.171 432.579 459.247L433.593 457.54H433.633L435.245 454.841C439.493 447.91 444.956 439.197 450.35 435.326Z" fill="#FFFDFD"/>
<path d="M217.613 505.593L217.256 512.186L217.205 513.261L218.517 514.479L221.896 519.763C228.401 531.453 236.103 552.518 236.857 558.773V558.893C239.603 578.424 229.529 597.879 219.57 616.455C219.404 609.99 219.34 603.367 219.34 597.143C219.34 582.431 218.695 567.764 218.022 553.052C217.383 538.4 216.732 523.77 216.732 509.359H210.861C210.861 524.259 211.5 538.888 212.173 553.525C212.76 568.147 213.463 582.776 213.463 597.15C213.463 605.607 213.647 614.14 213.952 622.642L214.119 627.063L212.329 630.468C200.24 653.698 202.664 656.938 212.87 671.109L214.775 673.665L219.801 671.109V668.087V664.388L220.106 655.976L220.342 647.315V647.225C220.342 641.324 220.175 635.347 219.985 629.235L223.83 622.071C234.537 601.894 245.757 580.574 242.671 557.667C241.837 550.736 233.599 527.627 226.559 515.245L222.535 508.915L217.613 505.593ZM214.004 661.178C210.026 655.081 209.433 651.044 214.413 640.489L214.482 647.218V647.308L214.188 655.547L214.004 661.178Z" fill="#FFFDFD"/>
<path d="M215.489 429.95C225.862 427.898 229.42 436.393 230.582 447.015C231.291 453.135 231.291 460.081 231.291 466.336L231.36 473.703V473.861C231.544 479.514 231.832 487.175 230.582 493.377C229.535 498.707 227.157 503.27 222.351 504.21L219.398 504.593H216.617C211.88 504.36 207.188 502.42 204.281 496.925C200.188 489.332 201.662 469.764 202.669 457.134L203.158 451.421V451.285C203.579 444.369 204.574 439.453 206.428 436.16C208.31 433.003 211.223 431.063 215.489 429.95ZM236.402 445.85C234.733 431.168 229.708 419.381 214.545 422.403H214.481C208.673 423.869 204.701 426.703 201.863 431.461C199.083 436.07 197.765 442.294 197.292 450.699L196.82 456.458C195.807 470.125 194.075 491.445 199.486 501.33C203.636 509.126 210.026 511.885 216.387 512.329H219.812L223.203 511.818C231.008 510.337 234.635 503.518 236.356 495.241C237.824 487.784 237.536 479.529 237.231 473.425L237.179 466.351C237.179 459.818 237.179 452.661 236.402 445.85Z" fill="#FFFDFD"/>
<path d="M225.506 433.002L227.325 436.175L229.23 439.745C232.183 445.94 234.745 453.27 235.856 459.246L238.118 468.147L238.354 468.997L235.585 464.148V463.997L230.531 454.202C227.918 449.473 225.183 444.497 223.721 440.061L223.652 439.738L221.942 435.242L219.335 425.8H213.457C213.457 430.589 215.115 434.844 216.727 438.881L218.31 442.828L218.379 443.121C220.169 448.376 222.938 453.661 225.73 458.615L230.393 467.779C231.066 469.215 235.343 476.68 238.297 480.566L240.588 483.265L245.648 482.386L246.287 479.506C246.287 474.394 244.928 469.756 243.621 465.208L241.612 457.615L241.543 457.525C240.346 450.774 237.514 442.662 234.192 435.693L232.131 431.784L230.047 428.101L225.506 433.002Z" fill="#FFFDFD"/>
<path d="M212.518 393.888C209.203 394.963 207.366 398.632 206.537 402.857C205.829 406.443 205.593 410.314 205.593 413.254C205.593 419.448 208.8 423.47 212.76 425.334L217.095 426.289L221.47 425.334C225.188 423.613 228.113 419.771 228.113 413.254L226.15 403.841L223.179 398.985L216.554 394.843L214.176 394.008L212.518 393.888ZM212.15 404.992L213.468 401.804L215.126 402.33L218.983 404.428L221.009 407.525L221.245 407.924L222.241 413.254L219.513 418.125L217.216 418.591L214.654 417.975L211.517 413.246L212.15 404.992Z" fill="#FFFDFD"/>
<path d="M208.443 433.236L206.722 429.357L205.594 426.568C199.083 431.063 193.263 440.445 188.647 448.023L187.046 450.579V450.699L186.033 452.285C182.476 458.157 182.188 458.63 184.439 468.997C185.21 472.297 187.697 477.282 190.132 481.935L193.925 490.084L194.041 489.994L196.642 497.557L194.334 498.496L191.082 503.984H196.959L197.966 504.601L202.624 497.181L202.318 495.459L199.538 488.408L199.25 486.558L194.916 477.642C192.791 473.47 190.598 469.14 190.126 466.892C188.641 460.359 188.808 460.066 190.598 457.127L191.611 455.42L193.2 452.759C197.46 445.85 202.917 437.175 208.443 433.236Z" fill="#FFFDFD"/>
<path d="M191.053 651.826L186.028 654.615L183.823 661.344L186.028 668.079L191.053 670.726L196.102 668.079L198.128 661.344L196.102 654.615L191.053 651.826ZM191.053 653.134L195.319 655.54L197.109 661.336L195.319 667.08L191.053 669.403L186.736 667.08L184.963 661.336L186.736 655.54L191.053 653.134Z" fill="#FFFDFD"/>
<path d="M190.431 660.592L188.911 660.11L188.405 658.404L189.165 656.697L190.23 656.479H193.194V660.592H190.431ZM194.495 654.968H190.23L188.514 655.45L187.225 658.299L187.581 660.005L188.514 661.065L187.691 661.975L187.392 663.388L187.259 665.004L187.225 666.079L186.862 666.861V667.094H188.336L188.514 666.538V665.771L188.641 663.689L189.262 662.043L190.425 661.982H193.183V667.094H194.489L194.495 654.968Z" fill="#FFFDFD"/>
<path d="M327.782 402.639L329.025 405.826L329.681 414.126L326.596 418.779L324.149 419.38L321.737 418.824L319.124 414.126L320.12 408.781L320.315 408.397L322.376 405.3L326.118 403.285L327.782 402.639ZM334.655 403.871C333.705 399.617 331.972 396.076 328.657 394.971L327.074 395.106L324.742 396.001L318.301 399.947L315.336 404.751L313.344 414.118C313.344 420.463 316.171 424.41 319.884 425.951L324.149 426.921L328.415 425.951C332.364 424.259 335.484 420.207 335.484 414.118L334.655 403.871Z" fill="#FFFDFD"/>
<path d="M323.816 430.83C334.068 428.845 337.528 437.302 338.743 447.624C339.387 453.744 339.387 460.577 339.387 466.651L339.485 473.996V474.101C339.687 479.604 339.974 487.182 338.743 493.264C337.632 498.624 335.375 503.044 330.563 503.984L327.73 504.367H324.95C320.322 504.134 315.711 502.165 312.792 496.79C308.768 489.347 310.305 470.124 311.324 457.63L311.664 451.932C312.021 445.076 313.097 440.197 314.934 436.866C316.816 433.867 319.688 431.905 323.816 430.83ZM344.424 446.557C342.858 432.078 337.798 420.463 322.987 423.402H322.866C317.167 424.868 313.137 427.672 310.351 432.273C307.744 436.866 306.322 442.993 305.884 451.315L305.51 456.923C304.485 470.312 302.764 491.445 308.014 501.195H308.101C312.205 508.916 318.48 511.705 324.645 512.028L328.133 511.877L331.368 511.411H331.455C339.146 509.998 342.772 503.277 344.372 495.233C345.858 487.889 345.553 479.755 345.253 473.65V466.659C345.253 460.374 345.253 453.135 344.424 446.557Z" fill="#FFFDFD"/>
<path d="M333.705 433.912L335.53 436.867L337.303 440.453C340.348 446.707 342.852 453.759 343.831 459.6L346.122 468.381L346.387 469.381L343.664 464.524L343.589 464.366L338.679 454.766C336.117 450.128 333.4 445.249 331.967 440.829L331.921 440.46L330.263 436.085L327.632 426.793H321.847C321.847 431.477 323.499 435.724 325.099 439.596L326.584 443.663H326.671V443.881C328.357 449.008 331.259 454.142 333.987 459.134L338.558 468.148C339.197 469.659 343.417 476.793 346.289 480.747L348.644 483.288L353.617 482.551L354.245 479.612C354.245 474.5 352.823 470.125 351.499 465.592L349.582 458.164V458.014C348.315 451.436 345.541 443.302 342.196 436.401L340.222 432.537L338.195 429.116L333.705 433.912ZM326.596 443.648H326.682V443.753L326.596 443.648Z" fill="#FFFDFD"/>
<path d="M326.527 511.569L334.54 516.208L342.127 525.094L343.071 526.357L344.073 527.928L348.287 535.092C347.153 541.565 347.51 548.526 347.976 555.307L348.448 565.351C348.448 570.079 348.58 575.116 348.724 580.093C348.805 585.099 348.92 590.211 348.92 594.775C348.92 601.586 351.954 605.051 355.091 608.78L358.649 613.494L363.49 609.366L358.931 603.052L354.803 594.767C354.803 589.933 354.619 584.859 354.487 579.822C354.331 574.875 354.251 569.839 354.251 565.343C354.251 561.674 354.026 558.149 353.79 554.743C353.433 547.857 352.898 541.046 354.147 535.596L353.963 532.762L348.448 523.011L347.354 521.305L346.209 519.839V519.764C343.831 516.681 341.062 513.11 337.977 510.088C334.655 506.796 330.885 504.36 326.97 503.984L326.527 511.569Z" fill="#FFFDFD"/>
<path d="M320.316 504.601C316.441 504.984 312.763 507.54 309.407 510.871C306.252 513.878 303.524 517.539 301.1 520.711L300.081 522.328L298.873 523.989L293.519 534.002L293.335 536.701C294.463 542.309 293.991 549.391 293.519 556.202C293.45 559.728 293.162 563.276 293.162 566.922C293.162 571.546 293.035 576.733 292.966 581.785C292.811 586.979 292.69 592.076 292.69 596.97L288.476 605.518L283.906 611.818L288.781 615.99L292.339 611.096C295.419 607.457 298.389 603.871 298.389 596.97C298.389 592.332 298.498 587.205 298.665 582.108C298.769 576.996 298.873 571.801 298.873 566.922L299.339 556.773C299.811 549.872 300.277 542.768 299.137 536.22L303.351 528.89L304.347 527.334L305.176 526.101C307.444 523.034 310.115 519.614 312.867 516.907L320.845 512.194L320.316 504.601Z" fill="#FFFDFD"/>
<path d="M317.351 433.386L315.751 429.627L314.623 426.778C308.216 431.304 302.511 440.58 297.963 447.91L296.323 450.451L296.242 450.586L295.298 452.18C291.867 457.894 291.568 458.375 293.703 468.629C294.469 471.944 296.898 476.793 299.339 481.446L303.184 489.347L305.746 496.79L303.536 497.624L300.277 503.044H306.086L307.099 503.691L311.773 496.482V496.324L311.37 494.798L308.636 487.663L308.279 485.942L304.071 477.176C302.056 473.034 299.817 468.764 299.345 466.576C297.969 460.089 298.026 459.826 299.817 456.931L300.836 455.24L302.413 452.669C306.627 445.858 311.957 437.31 317.357 433.506L317.351 433.386Z" fill="#FFFDFD"/>
<path d="M331.828 508.051H317.506H314.622V511.81V667.087V670.876H317.506H331.828H334.828V667.087V511.81V508.051H331.828ZM320.459 515.599H328.962V663.283H320.459V515.599Z" fill="#FFFDFD"/>
<path d="M192.503 362.63C192.503 374.275 202.404 383.785 214.729 383.785C227.008 383.785 236.955 374.267 236.955 362.63C236.955 350.97 227.002 341.513 214.729 341.513C202.404 341.513 192.503 350.97 192.503 362.63Z" fill="#FFFDFD"/>
<path d="M488.936 364.803C488.936 377.094 478.419 387.107 465.426 387.107C452.434 387.107 441.951 377.094 441.951 364.803C441.951 352.451 452.434 342.422 465.426 342.422C478.419 342.422 488.936 352.451 488.936 364.803Z" fill="#FFFDFD"/>
<path d="M298.821 362.337C299.448 372.027 309.942 378.312 322.261 376.372C334.592 374.5 344.073 365.073 343.48 355.435C342.824 345.79 332.318 339.445 320.022 341.332C307.692 343.347 298.211 352.744 298.821 362.337Z" fill="#FFFDFD"/>
<path d="M458.881 514.742C461.379 514.742 463.981 515.238 466.733 516.065C469.49 517.035 472.386 518.373 475.287 520.132C490.346 528.988 505.158 547.151 508.007 565.208L508.899 574.575L509.982 585.1C510.338 589.934 511.047 594.963 512.745 598.932C514.719 603.368 517.799 606.465 522.698 606.465V598.774L517.839 595.091C516.653 592.377 516.06 588.407 515.824 584.355C515.537 580.567 515.185 577.041 514.742 573.538L513.752 564.216V564.125V563.742C510.609 543.271 494.122 522.763 477.716 513.043C474.516 511.179 471.246 509.622 468.16 508.623C464.914 507.533 461.851 506.916 458.869 506.916V514.742H458.881Z" fill="#FFFDFD"/>
<path d="M107 250.972C107 271.352 125.11 287.974 147.457 287.974C169.787 287.974 187.914 271.352 187.914 250.972C187.914 230.561 169.787 214 147.457 214C125.11 214 107 230.561 107 250.972Z" fill="#FFFDFD" stroke="white" stroke-miterlimit="10"/>
<path d="M483.218 255.475C483.218 277.073 464.066 294.529 440.464 294.529C416.84 294.529 397.745 277.073 397.745 255.475C397.745 233.877 416.834 216.436 440.464 216.436C464.066 216.436 483.218 233.877 483.218 255.475Z" fill="#FFFDFD" stroke="white" stroke-miterlimit="10"/>
<path d="M230.213 263.511C231.663 281.118 250.804 291.703 273.001 286.944C295.181 282.23 311.979 264.098 310.528 246.416C309.112 228.78 289.96 218.315 267.797 223.044C245.565 227.727 228.797 245.935 230.213 263.511Z" fill="#FFFDFD" stroke="white" stroke-miterlimit="10"/>
<path d="M589.807 79.1685C589.807 122.275 550.783 157.269 502.618 157.269C454.511 157.269 415.47 122.282 415.47 79.1685C415.47 35.9721 454.505 1 502.618 1C550.783 1 589.807 35.9721 589.807 79.1685Z" fill="#FFFDFD" stroke="white" stroke-width="1.5" stroke-miterlimit="10"/>
<path d="M382.571 79.1685C382.571 122.275 343.548 157.269 295.383 157.269C247.276 157.269 208.235 122.282 208.235 79.1685C208.235 35.9721 247.27 1 295.383 1C343.548 1 382.571 35.9721 382.571 79.1685Z" fill="#FFFDFD" stroke="white" stroke-width="1.5" stroke-miterlimit="10"/>
<path d="M175.336 79.1685C175.336 122.275 136.313 157.269 88.148 157.269C40.0406 157.269 0.999842 122.282 0.999842 79.1685C0.999842 35.9721 40.0349 1 88.148 1C136.313 1 175.336 35.9721 175.336 79.1685Z" fill="#FFFDFD" stroke="white" stroke-width="1.5" stroke-miterlimit="10"/>
</svg>
