<?xml version="1.0" encoding="utf-8"?>
<!-- Generator: Adobe Illustrator 15.0.0, SVG Export Plug-In  -->
<!DOCTYPE svg PUBLIC "-//W3C//DTD SVG 1.1//EN" "http://www.w3.org/Graphics/SVG/1.1/DTD/svg11.dtd" [
	<!ENTITY ns_flows "http://ns.adobe.com/Flows/1.0/">
]>
<svg version="1.1"
	 xmlns="http://www.w3.org/2000/svg" xmlns:xlink="http://www.w3.org/1999/xlink" xmlns:a="http://ns.adobe.com/AdobeSVGViewerExtensions/3.0/"
	 x="0px" y="0px" width="310px" height="158px" viewBox="-0.3 -0.5 310 158"
	 overflow="visible" enable-background="new -0.3 -0.5 310 158" xml:space="preserve">
<defs>
</defs>
<path fill="#FFFFFF" d="M96.4,115.1L96.4,115.1c-0.9,0-1.8,0.1-2.7,0.4c-1,0.3-2,0.6-3,1.1c-5.2,2.4-10.4,7.2-11.4,12l-0.3,2.5
	l-0.4,2.8c-0.1,1.3-0.4,2.6-1,3.7c-0.7,1.2-1.8,2-3.5,2v-2l1.7-1c0.4-0.7,0.6-1.8,0.7-2.9c0.1-1,0.2-1.9,0.4-2.9l0.3-2.5v0v-0.1
	c1.1-5.4,6.8-10.9,12.5-13.5c1.1-0.5,2.2-0.9,3.3-1.2c1.1-0.3,2.2-0.5,3.2-0.5V115.1z"/>
<path fill="#FFFFFF" d="M97.9,114.5L97.9,114.5c5.2,0,9.9,2.4,13.4,6.3c3.4,3.9,5.5,9.2,5.5,15.1c0,5.8-2.1,11.2-5.5,15.1
	c-3.4,3.9-8.1,6.3-13.4,6.3s-9.9-2.4-13.4-6.3c-3.4-3.9-5.5-9.2-5.5-15.1c0-5.9,2.1-11.2,5.5-15.1C88,117,92.7,114.5,97.9,114.5
	 M97.9,116.6L97.9,116.6c-4.6,0-8.8,2.2-11.8,5.6c-3.1,3.5-5,8.4-5,13.7c0,5.3,1.9,10.2,5,13.7c3,3.5,7.2,5.7,11.8,5.7
	c4.6,0,8.8-2.2,11.8-5.7c3.1-3.5,5-8.3,5-13.7c0-5.4-1.9-10.2-5-13.7C106.7,118.7,102.5,116.6,97.9,116.6"/>
<path fill="#FFFFFF" d="M97.3,113.2L97.3,113.2l2.5-0.1c0.8,0.1,1.8,0.2,2.8,0.5c4.8,1.1,10.1,4.3,12.6,7.7v0l0.7,1.2l0.7,1.3
	c1.2,2.5,2.1,5.5,2.3,7.6v0l0.4,1.9l0.4,2.5c0.1,1.1,0.4,1.1,0.8,1.2l2,0.5l-0.9,1.8l-1.3-0.3c-1.4-0.2-2.3-0.3-2.6-3l-0.4-2.2
	l-0.4-2.1v0c-0.2-1.9-1.1-4.6-2.2-6.8l-0.7-1.2l-0.6-1h0v0L97.3,113.2z M97.6,115.2l-0.3-2L97.6,115.2z M99.7,115.2l-2.1,0
	L99.7,115.2z M102.1,115.6l-2.4-0.4L102.1,115.6z M113.4,122.4c-2.1-3.1-7-5.8-11.4-6.9L113.4,122.4z"/>
<path fill="#FFFFFF" d="M96,82.9L96,82.9L96,82.9l1,0.1l0.3,0.1l0.2,0l1.6,1.1l1,1.3l0.5,1.2v0l-0.3,2.8l-1.7,2.1l-1.2,0.5l-0.9,0.1
	L94,91.4c-0.8-0.6-1.5-1.4-1.7-2.5L92.2,88c0-1.5,0.7-3.4,1.9-4.4l0.9-0.5L96,82.9z M96.1,84.9L95.8,85l-0.4,0.3
	c-0.7,0.6-1.2,1.8-1.2,2.8l0.1,0.5l0.8,1.2l1.5,0.5l0.4-0.1l0.5-0.2l0.9-1.2l0.2-1.5l-0.2-0.5l0,0l-0.8-1.1l-0.6-0.5L96.5,85
	L96.1,84.9z"/>
<path fill="#FFFFFF" d="M96.9,93.2c-3.6-0.6-4.9,1.7-5.3,4.5c-0.2,1.6-0.2,3.5-0.2,5.1l0,2v0c-0.1,1.5-0.2,3.5,0.3,5.2
	c0.4,1.4,1.2,2.6,2.9,2.9h0l1,0.1l1,0c1.6-0.1,3.3-0.6,4.3-2.1h0l0,0c1.4-2,0.9-7.2,0.5-10.6l-0.1-1.6c-0.1-1.9-0.5-3.2-1.2-4
	C99.3,94,98.3,93.4,96.9,93.2 M89.6,97.4c0.6-3.9,2.3-7,7.6-6.2l0,0c2,0.4,3.5,1.1,4.4,2.4c0.9,1.2,1.4,2.9,1.6,5.1l0.1,1.5
	c0.4,3.6,1,9.3-0.9,12c-1.4,2.1-3.7,2.8-5.8,2.9l-1.2,0l-1.2-0.1v0v0c-2.7-0.4-4-2.2-4.5-4.4c-0.5-2-0.4-4.2-0.4-5.8l0-1.9
	C89.3,101.1,89.3,99.2,89.6,97.4"/>
<path fill="#FFFFFF" d="M93.4,94L93.4,94l-0.7,0.8l-0.6,0.9c-1.1,1.7-1.9,3.6-2.3,5.2l-0.8,2.4l-0.1,0.3l1-1.3v0l1.7-2.6
	c0.9-1.3,1.8-2.6,2.4-3.8l0-0.1l0.6-1.2l0.9-2.5h2.1c0,1.3-0.6,2.4-1.2,3.4l-0.5,1.1l0,0.1v0v0c-0.6,1.4-1.6,2.8-2.6,4.1l-1.6,2.4
	c-0.2,0.4-1.7,2.4-2.7,3.4l-0.8,0.7l-1.7-0.2l-0.2-0.8c0-1.4,0.5-2.6,0.9-3.8l0.7-2l0,0c0.4-1.8,1.4-3.9,2.6-5.8l0.7-1l0.7-0.9
	L93.4,94z M95.9,96.6L95.9,96.6L95.9,96.6L95.9,96.6z M95.8,96.6L95.8,96.6L95.8,96.6z"/>
<path fill="#FFFFFF" d="M99.3,94L99.3,94l0.5-1l0.4-0.7c2.3,1.2,4.3,3.7,5.9,5.7l0.6,0.7l0.4,0.5c1.2,1.6,1.3,1.7,0.6,4.4
	c-0.3,0.9-1.1,2.2-2,3.4l-1.4,2.2l-0.9,2l0.8,0.2l1.1,1.5h-2L103,113l-1.6-1.9v0l0.1-0.5l1-1.9l0.1-0.5l1.5-2.4
	c0.8-1.1,1.5-2.3,1.7-2.9c0.5-1.8,0.5-1.8-0.2-2.6l-0.4-0.5h0l-0.6-0.7C103.1,97.4,101.2,95,99.3,94 M105.2,99.9L105.2,99.9
	L105.2,99.9z"/>
<path fill="#FFFFFF" d="M213.2,112.7L213.2,112.7l0.1,1.8l0,0.3l-0.5,0.3l-1.2,1.4c-2.3,3.1-4.9,8.7-5.2,10.4v0
	c-1,5.2,2.5,10.4,6,15.3c0.1-1.7,0.1-3.5,0.1-5.1c0-3.9,0.2-7.8,0.5-11.7c0.2-3.9,0.4-7.8,0.4-11.6h2c0,4-0.2,7.9-0.5,11.8
	c-0.2,3.9-0.4,7.8-0.4,11.6c0,2.2-0.1,4.5-0.2,6.8l-0.1,1.2l0.6,0.9c4.2,6.2,3.4,7-0.2,10.8l-0.7,0.7l-1.7-0.7v-0.8v-1l-0.1-2.2
	l-0.1-2.3v0c0-1.6,0.1-3.2,0.1-4.8l-1.3-1.9c-3.7-5.4-7.6-11-6.5-17.1c0.3-1.8,3.2-8,5.6-11.3l1.4-1.7L213.2,112.7z M214.4,154.1
	c1.4-1.6,1.6-2.7-0.1-5.5l0,1.8v0l0.1,2.2L214.4,154.1z"/>
<path fill="#FFFFFF" d="M213.9,92.6c-3.6-0.5-4.8,1.7-5.2,4.5c-0.2,1.6-0.2,3.5-0.2,5.1l0,2v0c-0.1,1.5-0.2,3.5,0.3,5.2
	c0.4,1.4,1.2,2.6,2.9,2.9l1,0.1h1c1.6-0.1,3.3-0.6,4.3-2c1.4-2,0.9-7.2,0.6-10.6l-0.2-1.5v0c-0.1-1.8-0.5-3.1-1.1-4
	C216.4,93.4,215.4,92.9,213.9,92.6 M206.7,96.8c0.6-3.9,2.3-7,7.6-6.2h0c2,0.4,3.4,1.1,4.4,2.4c1,1.2,1.4,2.9,1.6,5.1l0.2,1.5
	c0.4,3.6,1,9.3-0.9,11.9c-1.4,2.1-3.7,2.8-5.9,2.9h-1.2l-1.2-0.1c-2.7-0.4-4-2.2-4.6-4.4c-0.5-2-0.4-4.2-0.3-5.8l0-1.9
	C206.4,100.5,206.4,98.6,206.7,96.8"/>
<path fill="#FFFFFF" d="M210.4,93.4L210.4,93.4l-0.6,0.8l-0.7,0.9c-1,1.6-1.9,3.6-2.3,5.2l-0.8,2.4L206,103l1-1.3v0l1.8-2.6
	c0.9-1.3,1.9-2.6,2.4-3.8l0-0.1l0.6-1.2l0.9-2.5h2c0,1.3-0.6,2.4-1.1,3.5l-0.6,1.1l0,0.1v0v0c-0.6,1.4-1.6,2.8-2.6,4.1l-1.6,2.4
	c-0.2,0.4-1.7,2.4-2.7,3.4l-0.8,0.7l-1.8-0.2l-0.2-0.8c0-1.4,0.5-2.6,0.9-3.8l0.7-2l0,0c0.4-1.8,1.4-4,2.6-5.8l0.7-1l0.7-1
	L210.4,93.4z M212.9,96L212.9,96L212.9,96L212.9,96z"/>
<path fill="#FFFFFF" d="M215,83c1.2,0.3,1.8,1.3,2.1,2.4c0.2,1,0.3,2,0.3,2.8c0,1.6-1.1,2.7-2.5,3.2l-1.5,0.3l-1.5-0.3
	c-1.3-0.5-2.3-1.5-2.3-3.2l0.7-2.5l1-1.3l2.3-1.1l0.8-0.2L215,83z M215.1,85.9l-0.5-0.8l-0.6,0.1l-1.3,0.6l-0.7,0.8l-0.1,0.1
	l-0.3,1.4l0.9,1.3l0.8,0.1l0.9-0.2l1.1-1.3L215.1,85.9z"/>
<path fill="#FFFFFF" d="M216.4,93.5L216.4,93.5l0.6-1l0.4-0.7c2.3,1.2,4.3,3.7,5.9,5.7l0.6,0.7v0l0.4,0.4c1.2,1.6,1.3,1.7,0.6,4.4
	c-0.3,0.9-1.1,2.2-2,3.4l-1.3,2.2l0,0l-0.9,2l0.8,0.2l1.1,1.5h-2l-0.3,0.2l-1.6-2l0.1-0.5l1-1.9l0.1-0.5l1.5-2.4
	c0.7-1.1,1.5-2.3,1.7-2.9c0.5-1.7,0.5-1.8-0.2-2.6l-0.4-0.5l-0.6-0.7C220.2,96.8,218.3,94.5,216.4,93.5"/>
<path fill="#FFFFFF" d="M222.4,151.6L222.4,151.6l1.7,0.7l0.8,1.8l-0.8,1.8l-1.7,0.7l-1.8-0.7l-0.7-1.8l0.7-1.8L222.4,151.6z
	 M222.4,152L222.4,152l-1.5,0.6l-0.6,1.5l0.6,1.5l1.5,0.6l1.5-0.6l0.6-1.5l-0.6-1.5L222.4,152z"/>
<path fill="#FFFFFF" d="M222.6,153.9l0.5-0.1l0.2-0.5l-0.3-0.5l-0.4-0.1h-1v1.1H222.6z M221.2,152.4h1.5l0.6,0.1l0.4,0.8l-0.1,0.5
	l-0.3,0.3l0.3,0.2l0.1,0.4l0,0.4l0,0.3l0.1,0.2v0.1h-0.5l-0.1-0.1v-0.2l0-0.6l-0.2-0.4l-0.4,0h-1v1.4h-0.5V152.4z"/>
<path fill="#FFFFFF" d="M159.9,85.3l-0.4,0.8l-0.2,2.2l1.1,1.2l0.8,0.2l0.8-0.1l0.9-1.2l-0.3-1.4l-0.1-0.1l-0.7-0.8l-1.3-0.5
	L159.9,85.3z M157.5,85.6c0.3-1.1,0.9-2.1,2.1-2.4l0.6,0l0.8,0.2l2.2,1.1l1,1.3l0.7,2.5c0,1.7-1,2.7-2.3,3.1l-1.5,0.3l-1.5-0.3
	c-1.4-0.4-2.5-1.5-2.5-3.1L157.5,85.6z"/>
<path fill="#FFFFFF" d="M161.3,92.8c-3.6-0.5-4.8,1.7-5.2,4.5c-0.2,1.6-0.2,3.4-0.2,5.1l0,2v0c-0.1,1.5-0.2,3.5,0.3,5.1
	c0.4,1.4,1.2,2.6,2.8,2.9l1,0.1h1c1.6-0.1,3.2-0.6,4.2-2c1.4-2,0.9-7.1,0.5-10.4l-0.1-1.5c-0.1-1.8-0.5-3.1-1.1-4
	C163.7,93.6,162.7,93.1,161.3,92.8 M154.1,97c0.5-3.9,2.3-6.9,7.4-6.2h0c2,0.4,3.4,1.1,4.3,2.4c0.9,1.2,1.4,2.9,1.6,5.1l0.1,1.5
	c0.4,3.6,1,9.2-0.9,11.8h0c-1.4,2.1-3.6,2.8-5.7,2.9l-1.2,0l-1.1-0.1h0c-2.7-0.4-3.9-2.2-4.5-4.3c-0.5-2-0.4-4.1-0.3-5.7v-1.9
	C153.8,100.7,153.8,98.8,154.1,97"/>
<path fill="#FFFFFF" d="M157.9,93.6L157.9,93.6l-0.6,0.8l-0.6,1c-1.1,1.7-1.9,3.5-2.3,5.1l-0.8,2.3l-0.1,0.3l0.9-1.3l0,0l1.7-2.6
	c0.9-1.2,1.8-2.5,2.3-3.7l0-0.1l0.6-1.2l0.9-2.5h2c0,1.2-0.6,2.4-1.1,3.4l-0.5,1.1h0v0.1v0v0c-0.6,1.4-1.6,2.7-2.5,4.1l-1.6,2.4
	c-0.2,0.4-1.7,2.3-2.7,3.4l-0.8,0.7l-1.7-0.2l-0.2-0.8c0-1.4,0.5-2.5,1-3.7l0.7-2v0c0.4-1.8,1.4-3.9,2.6-5.8l0.7-1l0.7-0.9
	L157.9,93.6z M160.3,96.2L160.3,96.2L160.3,96.2L160.3,96.2z"/>
<path fill="#FFFFFF" d="M160.3,114.3l-2.8,1.2l-2.6,2.4l-0.3,0.3l-0.3,0.4l-1.5,1.9c0.4,1.7,0.3,3.6,0.1,5.4l-0.2,2.7
	c0,1.3,0,2.6-0.1,3.9c0,1.3-0.1,2.7-0.1,3.9c0,1.8-1.1,2.7-2.1,3.7l-1.2,1.3l-1.7-1.1l1.6-1.7l1.4-2.2c0-1.3,0.1-2.6,0.1-4
	c0.1-1.3,0.1-2.7,0.1-3.9c0-1,0.1-1.9,0.2-2.8c0.1-1.8,0.3-3.6-0.1-5.1l0.1-0.8l1.9-2.6l0.4-0.5l0.4-0.4v0c0.8-0.8,1.8-1.8,2.9-2.6
	c1.2-0.9,2.5-1.5,3.8-1.6L160.3,114.3z"/>
<path fill="#FFFFFF" d="M162.5,112.4c1.3,0.1,2.6,0.8,3.8,1.7c1.1,0.8,2,1.8,2.9,2.6l0.4,0.4l0.4,0.4l1.9,2.7l0.1,0.7
	c-0.4,1.5-0.2,3.4-0.1,5.2c0,0.9,0.1,1.9,0.1,2.9c0,1.2,0,2.6,0.1,4c0.1,1.4,0.1,2.7,0.1,4l1.5,2.3l1.6,1.7l-1.7,1.1l-1.2-1.3
	c-1.1-1-2.1-1.9-2.1-3.8c0-1.2,0-2.6-0.1-4c0-1.4-0.1-2.7-0.1-4l-0.2-2.7c-0.2-1.8-0.3-3.7,0.1-5.5l-1.5-1.9l-0.3-0.4l-0.3-0.3
	c-0.8-0.8-1.7-1.7-2.7-2.4l-2.8-1.3L162.5,112.4z"/>
<path fill="#FFFFFF" d="M163.5,93.5L163.5,93.5l0.6-1l0.4-0.8c2.2,1.2,4.2,3.7,5.8,5.6l0.6,0.7l0,0l0.3,0.4c1.2,1.5,1.3,1.6,0.6,4.4
	c-0.3,0.9-1.1,2.2-2,3.4l-1.3,2.1l-0.9,2l0.8,0.2l1.1,1.4h-2l-0.4,0.2l-1.6-1.9v0l0.1-0.4l0.9-1.9l0.1-0.5l1.5-2.3
	c0.7-1.1,1.5-2.2,1.6-2.8c0.5-1.7,0.5-1.8-0.2-2.6l-0.4-0.4l-0.5-0.7C167.3,96.8,165.4,94.5,163.5,93.5L163.5,93.5z"/>
<path fill="#FFFFFF" d="M158.5,113.4h5h1v1v41.3v1h-1h-5h-1v-1v-41.3v-1H158.5z M162.5,115.4h-3v39.3h3V115.4z"/>
<path fill="#FFFFFF" stroke="#FFFFFF" stroke-width="2" stroke-miterlimit="10" d="M308.4,22.8c0,10.9-19.5,19.7-43.6,19.7
	c-24.1,0-43.6-8.8-43.6-19.7c0-10.9,19.5-19.7,43.6-19.7C288.9,3.1,308.4,11.9,308.4,22.8"/>
<path fill="none" stroke="#FFFFFF" stroke-width="2" stroke-miterlimit="10" d="M241.1,52.8c0,5.4-6.3,9.8-14.1,9.8
	c-7.8,0-14.1-4.4-14.1-9.8c0-5.4,6.3-9.8,14.1-9.8C234.8,42.9,241.1,47.3,241.1,52.8"/>
<path fill="none" stroke="#FFFFFF" stroke-width="2" stroke-miterlimit="10" d="M224.9,74.7c0,3.1-3.4,5.6-7.7,5.6
	c-4.3,0-7.7-2.5-7.7-5.6c0-3.1,3.5-5.6,7.7-5.6C221.5,69.1,224.9,71.6,224.9,74.7"/>
<path fill="none" stroke="#FFFFFF" stroke-width="2" stroke-miterlimit="10" d="M1,21.8c0,11.5,20.6,20.8,46,20.8
	c25.4,0,46-9.3,46-20.8C93.1,10.3,72.5,1,47,1C21.6,1,1,10.3,1,21.8"/>
<path fill="none" stroke="#FFFFFF" stroke-width="2" stroke-miterlimit="10" d="M65.3,54c0,5.7,6.7,10.4,14.9,10.4
	C88.4,64.4,95,59.7,95,54s-6.6-10.4-14.8-10.4C72,43.6,65.3,48.2,65.3,54"/>
<path fill="none" stroke="#FFFFFF" stroke-width="2" stroke-miterlimit="10" d="M82.9,75.3c0,3.3,3.7,5.9,8.2,5.9s8.2-2.7,8.2-5.9
	c0-3.3-3.6-6-8.2-6S82.9,72,82.9,75.3"/>
<path fill="none" stroke="#FFFFFF" stroke-width="2" stroke-miterlimit="10" d="M159.8,39.9c-1.2,0-2.5,0-3.7,0
	c-21.3-0.6-39.4-5.6-46.2-12.9c-2-2.2-3-4.5-2.9-6.9C107.5,8.9,131,3,153.9,3c1.2,0,2.5,0,3.7,0c21.3,0.5,39.4,5.6,46.2,12.9
	c2,2.2,3,4.5,2.9,6.9C206.2,34,182.7,39.9,159.8,39.9z"/>
<path fill="none" stroke="#FFFFFF" stroke-width="2" stroke-miterlimit="10" d="M174.2,56.1c-0.5,4.7-7.2,7.5-14.9,6.2
	c-7.7-1.3-13.5-6.1-13-10.8c0.5-4.7,7.1-7.5,14.8-6.2C168.9,46.6,174.7,51.4,174.2,56.1"/>
<path fill="none" stroke="#FFFFFF" stroke-width="2" stroke-miterlimit="10" d="M170,76.3c-0.2,3.4-3.9,5.7-8.1,5
	c-4.3-0.7-7.6-4-7.4-7.4c0.2-3.4,3.9-5.7,8.2-5C166.9,69.6,170.2,72.9,170,76.3"/>
</svg>
