<svg width="557" height="378" viewBox="0 0 557 378" fill="none" xmlns="http://www.w3.org/2000/svg">
<path d="M112.223 160.66C136.835 160.66 159.09 172.977 175.243 192.703C191.161 212.257 201.119 239.138 201.119 268.904C201.119 298.437 191.152 325.521 175.243 345.075C159.09 364.76 136.845 377.057 112.223 377.057C87.6016 377.057 65.3657 364.76 49.1651 345.075C33.238 325.521 23.3462 298.437 23.3462 268.904C23.3462 239.138 33.238 212.246 49.1651 192.703C65.3657 172.977 87.611 160.66 112.223 160.66ZM112.223 171.054C90.5155 171.054 70.7313 182.025 56.5581 199.383C42.0266 217.135 32.9361 241.8 32.9361 268.904C32.9361 295.927 42.0266 320.42 56.5581 338.152C70.7313 355.651 90.5249 366.754 112.223 366.754C133.912 366.754 153.659 355.641 167.907 338.152C182.476 320.42 191.51 295.927 191.51 268.904C191.51 241.8 182.476 217.135 167.907 199.383C153.659 182.025 133.912 171.054 112.223 171.054Z" fill="#FB7B3C"/>
<path d="M109.431 153.899L121.219 153.605C125.179 153.899 129.63 154.557 134.223 155.923C156.76 161.611 182.06 177.451 193.442 194.828V195.01L196.95 200.921L200.298 207.642C205.871 220.151 210.426 235.393 211.312 245.909V246.03L213.057 255.403L214.999 267.912C215.461 273.428 216.706 273.62 218.573 273.863L228.003 276.576L223.751 285.847L217.414 284.187C210.879 283.337 206.73 282.841 205.381 268.904L203.551 257.751L201.845 247.073V246.86C200.902 237.488 196.752 223.612 191.594 212.267L188.473 205.982L185.644 200.759H185.484V200.597L109.431 153.899ZM185.493 200.587C175.394 185.132 152.498 171.226 131.893 165.902L185.493 200.587Z" fill="#FB7B3C"/>
<path d="M103.246 0.606056L103.633 0.393555L107.801 1.10202L109.432 1.43599L110.535 1.61822L118.296 7.19484L123.021 13.8343L125.482 20.1599V20.3016L123.983 34.2787L116.043 44.754L110.535 47.4056L106.443 47.942L94.033 43.7722C90.2044 40.9485 87.1115 36.6773 86.0742 31.1007L85.5366 26.6879C85.5366 18.8644 88.9505 9.64418 94.3916 4.56344L98.4274 1.91172L103.246 0.606056ZM103.812 10.9396L102.435 11.2331L100.709 12.5185C97.1921 15.5042 95.2497 21.3744 95.2497 26.6677L95.5513 29.1372L99.3327 35.1895L106.433 37.4871L108.517 37.1936L110.715 36.2422L115.052 29.9975L116.156 22.3865L115.052 19.6741L114.996 19.4616L111.29 14.0468L108.659 11.7493L105.736 11.2331L103.812 10.9396Z" fill="#FB7B3C"/>
<path d="M107.31 52.5169C90.2039 49.6324 84.3104 61.1602 82.3772 75.4308C81.3022 83.6896 81.3021 93.0211 81.3021 101.381L81.1323 111.381V111.583C80.8305 119.194 80.3781 129.528 82.3772 137.857C84.1972 145.053 88.0913 151.197 95.9276 152.442H96.1353L100.709 152.978L105.443 153.14C113.137 152.745 120.804 150.033 125.651 142.766H125.472L125.651 142.665C132.261 132.442 129.781 106.037 128.084 89.0942L127.508 81.2302C126.924 71.7771 125.17 65.2187 122.001 60.7553C118.965 56.5652 114.212 53.9743 107.31 52.5169ZM72.9093 73.8216C75.6723 54.0755 83.9049 38.2159 108.677 42.1934L108.771 42.2946C118.276 44.2682 125.048 48.0231 129.63 54.4297C134.11 60.7351 136.345 69.0748 137.118 80.38L137.806 88.0922C139.598 106.472 142.361 135.236 133.44 148.677C126.641 159.213 116.146 162.947 105.952 163.423L100.096 163.281L94.598 162.805C81.8865 160.65 75.7858 151.49 73.2397 140.458C70.7219 130.479 71.1934 119.305 71.4952 111.047L71.6932 101.381C71.6932 92.7175 71.6928 83.0317 72.9093 73.8216Z" fill="#FB7B3C"/>
<path d="M90.8078 56.5651L87.6866 60.8361L84.7823 65.6234C79.7279 73.9833 75.6349 83.8716 73.8433 91.8975L70.1372 103.881L69.6377 105.186L74.2772 98.4458V98.2636L82.4904 85.1367C86.8376 78.7706 91.1849 72.0097 93.6367 65.9068L93.8157 65.6335L96.6261 59.5609L101.03 46.8894H110.724C110.724 53.3567 107.791 58.9637 105.141 64.2874L102.576 69.9045L102.435 70.2386C99.6434 77.2929 94.8911 84.3573 90.3364 91.0979L82.632 103.395C81.6419 105.348 74.6732 115.378 69.8356 120.672L65.9506 124.234L57.7466 123.151L56.6997 119.214C56.6997 112.241 58.9629 106.047 61.0941 100.096L64.3287 89.7923L64.5267 89.5798C66.4598 80.5417 71.0143 69.611 76.5685 60.0467L79.935 54.804L83.3584 50.0168L90.8078 56.5651Z" fill="#FB7B3C"/>
<path d="M118.966 56.8792H118.767L121.474 51.677L123.322 47.9221C134.1 53.9745 143.71 66.565 151.169 76.7872L153.96 80.2284L155.619 82.5258C161.475 90.3899 161.862 91.0882 158.298 105.045C157.024 109.63 152.942 116.178 148.906 122.403L142.465 133.434L138.184 143.596L141.861 144.74L147.217 152.148H137.599L136.034 152.978L128.263 143.171V142.989L128.744 140.661L133.318 131.076L133.903 128.779L140.956 116.704C144.492 111.047 148.076 105.177 148.906 102.211C151.395 93.3553 151.084 93.0213 148.076 89.0843L146.416 86.7868H146.35L143.709 83.1534C136.75 73.8218 127.792 62.1017 118.966 56.8792Z" fill="#FB7B3C"/>
<path d="M500.218 151.49L500.802 160.366L500.887 161.814L498.737 163.453L493.202 170.568C482.546 186.307 469.928 214.666 468.693 223.086V223.248C464.195 249.543 480.697 275.736 497.011 300.745C497.285 292.041 497.388 283.124 497.388 274.744C497.388 254.937 498.444 235.191 499.548 215.384C500.594 195.658 501.66 175.963 501.66 156.561H511.279C511.279 176.621 510.232 196.316 509.129 216.022C508.167 235.707 507.017 255.403 507.017 274.754C507.017 286.14 506.715 297.627 506.215 309.074L505.942 315.025L508.874 319.61C528.677 350.884 524.707 355.246 507.988 374.324L504.866 377.766L496.634 374.324V370.256V365.276L496.134 353.951L495.748 342.291V342.17C495.748 334.225 496.021 326.179 496.332 317.95L490.033 308.305C472.493 281.14 454.114 252.437 459.169 221.598C460.536 212.267 474.031 181.155 485.563 164.486L492.155 155.964L500.218 151.49ZM506.121 360.955C512.637 352.746 513.608 347.311 505.451 333.102L505.338 342.16V342.281L505.819 353.374L506.121 360.955Z" fill="#FB7B3C"/>
<path d="M503.697 49.6426C486.704 46.8795 480.877 58.3163 478.972 72.6173C477.813 80.8558 477.812 90.2076 477.812 98.6283L477.699 108.547V108.759C477.397 116.37 476.926 126.684 478.972 135.034C480.689 142.209 484.583 148.353 492.457 149.618L497.295 150.134H501.849C509.61 149.82 517.295 147.209 522.057 139.811C528.762 129.588 526.348 103.243 524.698 86.2402L523.896 78.5482V78.366C523.208 69.0547 521.577 62.4356 518.54 58.0026C515.457 53.7619 510.685 51.1506 503.697 49.6426ZM469.438 71.0587C472.173 51.2923 480.405 35.4226 505.244 39.4912H505.348C514.863 41.4648 521.369 45.2804 526.018 51.687C530.573 57.8912 532.732 66.2714 533.505 77.5867L534.279 85.3394C535.938 103.739 538.777 132.443 529.913 145.752C523.114 156.247 512.646 159.962 502.226 160.559H496.616L491.061 159.87C478.274 157.877 472.333 148.697 469.514 137.554C467.109 127.514 467.581 116.401 468.081 108.183L468.165 98.6586C468.165 89.8534 468.165 80.2283 469.438 71.0587Z" fill="#FB7B3C"/>
<path d="M487.28 53.7618L484.299 58.0329L481.178 62.8403C476.341 71.1801 472.144 81.0481 470.324 89.0943L466.618 101.078L466.232 102.221L470.768 95.6932V95.4907L479.048 82.3031C483.329 75.937 487.808 69.2368 490.203 63.2654L490.316 62.8302L493.117 56.7779L497.388 44.0659H507.017C507.017 50.513 504.3 56.2415 501.66 61.6765L499.067 66.99L498.945 67.3948C496.012 74.4694 491.476 81.5845 486.902 88.2542L479.264 100.592C478.161 102.525 471.154 112.575 466.317 117.808L462.564 121.441L454.275 120.257L453.228 116.38C453.228 109.498 455.454 103.254 457.594 97.1303L460.885 86.9081L460.999 86.7867C462.96 77.698 467.599 66.7774 473.04 57.3952L476.416 52.1323L479.83 47.1731L487.28 53.7618Z" fill="#FB7B3C"/>
<path d="M508.563 1.10229C513.995 2.5496 517.002 7.48866 518.36 13.1767C519.52 18.0044 519.907 23.2167 519.907 27.174C519.907 35.5137 514.654 40.9284 508.167 43.4385L501.066 44.7238L493.899 43.4385C487.807 41.1207 483.017 35.9489 483.017 27.174L486.233 14.5025L491.098 7.96435L501.952 2.38765L505.847 1.26422L508.563 1.10229ZM509.166 16.0409L507.007 11.7496L504.291 12.4581L497.973 15.2818L494.654 19.4517L494.267 19.9881L492.636 27.1639L497.106 33.7223L500.868 34.3498L505.064 33.5199L510.204 27.1537L509.166 16.0409Z" fill="#FB7B3C"/>
<path d="M515.24 54.0755L518.059 48.8531L519.908 45.0981C530.573 51.1505 540.107 63.7815 547.67 73.9835L550.291 77.4246V77.5866L551.951 79.7221C557.778 87.6266 558.25 88.2642 554.563 102.221C553.299 106.664 549.225 113.374 545.237 119.639L539.022 130.611L538.834 130.489L534.572 140.671L538.353 141.936L543.681 149.324H534.052L532.402 150.154L524.745 140.175L525.245 137.857L529.8 128.364L530.271 125.874L537.372 113.87C540.852 108.253 544.444 102.424 545.218 99.3973C547.651 90.6022 547.377 90.2075 544.445 86.2502L542.785 83.9527L540.182 80.3699C533.232 71.0585 524.292 59.3688 515.24 54.0755Z" fill="#FB7B3C"/>
<path d="M543.727 348.364L551.96 352.119L555.571 361.178L551.96 370.246L543.727 373.808L535.457 370.246L532.138 361.178L535.457 352.119L543.727 348.364ZM543.727 350.115L536.74 353.354L533.807 361.157L536.74 368.89L543.727 372.017L550.799 368.89L553.704 361.157L550.799 353.354L543.727 350.115Z" fill="#FB7B3C"/>
<path d="M544.745 360.165L547.234 359.518L548.064 357.22L546.819 354.923L545.075 354.629H540.219V360.165H544.745ZM538.087 352.595H545.075L547.885 353.243L549.997 357.078L549.413 359.376L547.885 360.803L549.234 362.028L549.724 363.93L549.941 366.106L549.997 367.554L550.591 368.606V368.92H548.177L547.885 368.171V367.139L547.677 364.335L546.659 362.119L544.754 362.038H540.237V368.92H538.097L538.087 352.595Z" fill="#FB7B3C"/>
<path d="M319.747 12.8828L317.71 17.1741L316.635 28.3477L321.69 34.6126L325.697 35.4223L329.648 34.6733L333.929 28.3477L332.298 21.1517L331.978 20.6355L328.602 16.4656L322.463 13.7532L319.747 12.8828ZM308.478 14.5427C310.034 8.81417 312.873 4.04711 318.304 2.55933L320.898 2.74156L324.717 3.94591L335.269 9.25946L340.125 15.7268L343.388 28.3376C343.388 36.8797 338.758 42.1932 332.675 44.268L325.688 45.5736L318.7 44.268C312.231 41.9908 307.121 36.5356 307.121 28.3376L308.478 14.5427Z" fill="#FB7B3C"/>
<path d="M326.244 50.8368C309.45 48.1649 303.783 59.551 301.793 73.4472C300.737 81.6857 300.737 90.8856 300.737 99.0634L300.576 108.952V109.093C300.246 116.502 299.775 126.704 301.793 134.892C303.613 142.108 307.309 148.059 315.192 149.324L319.832 149.841H324.387C331.969 149.527 339.522 146.875 344.303 139.639C350.894 129.619 348.377 103.739 346.708 86.9182L346.151 79.2465C345.566 70.0161 343.803 63.4476 340.795 58.964C337.711 54.9257 333.006 52.274 326.244 50.8368ZM292.486 71.9998C295.05 52.5067 303.339 36.8698 327.603 40.8272H327.801C337.136 42.8008 343.737 46.5759 348.301 52.7699C352.573 58.9539 354.902 67.2025 355.618 78.4064L356.231 85.9567C357.91 103.982 360.729 132.432 352.129 145.559H351.988C345.265 155.954 334.986 159.708 324.887 160.144L319.172 159.941L313.872 159.314H313.731C301.133 157.411 295.192 148.363 292.57 137.533C290.137 127.645 290.637 116.694 291.127 108.476V99.0634C291.127 90.6023 291.128 80.8557 292.486 71.9998Z" fill="#FB7B3C"/>
<path d="M310.044 54.9862L307.055 58.9638L304.151 63.7915C299.162 72.2122 295.06 81.7057 293.457 89.5697L289.704 101.391L289.27 102.737L293.73 96.199L293.853 95.9864L301.897 83.0619C306.093 76.8172 310.544 70.2487 312.892 64.2976L312.968 63.8016L315.683 57.9112L319.993 45.4016H329.47C329.47 51.707 326.764 57.4254 324.142 62.6377L321.709 68.1132H321.568V68.4067C318.805 75.3092 314.052 82.2219 309.582 88.9422L302.095 101.077C301.048 103.112 294.136 112.716 289.43 118.04L285.573 121.461L277.426 120.469L276.398 116.512C276.398 109.63 278.728 103.739 280.897 97.6362L284.036 87.6366V87.4342C286.111 78.5783 290.656 67.6273 296.135 58.3363L299.37 53.1341L302.689 48.529L310.044 54.9862ZM321.69 68.093H321.549V68.2347L321.69 68.093Z" fill="#FB7B3C"/>
<path d="M321.803 159.537L308.676 165.781L296.248 177.744L294.701 179.445L293.06 181.56L286.158 191.205C288.015 199.919 287.431 209.291 286.667 218.421L285.894 231.942C285.894 238.308 285.677 245.089 285.441 251.79C285.309 258.53 285.121 265.412 285.121 271.556C285.121 280.726 280.151 285.391 275.012 290.411L269.184 296.757L261.253 291.201L268.722 282.699L275.483 271.546C275.483 265.038 275.785 258.206 276.001 251.425C276.256 244.766 276.388 237.984 276.388 231.932C276.388 226.993 276.756 222.246 277.143 217.662C277.727 208.391 278.604 199.221 276.558 191.883L276.86 188.068L285.894 174.941L287.685 172.643L289.562 170.67V170.548C293.457 166.399 297.992 161.591 303.047 157.522C308.488 153.089 314.664 149.81 321.077 149.304L321.803 159.537Z" fill="#FB7B3C"/>
<path d="M331.978 150.144C338.325 150.66 344.35 154.101 349.848 158.585C355.015 162.633 359.485 167.562 363.455 171.833L365.124 174.009L367.104 176.246L375.874 189.727L376.176 193.361C374.328 200.911 375.101 210.445 375.874 219.615C375.987 224.361 376.459 229.139 376.459 234.047C376.459 240.272 376.666 247.255 376.78 254.056C377.034 261.05 377.233 267.912 377.233 274.501L384.135 286.009L391.623 294.49L383.635 300.107L377.808 293.518C372.763 288.62 367.896 283.792 367.896 274.501C367.896 268.256 367.718 261.354 367.444 254.492C367.274 247.609 367.104 240.616 367.104 234.047L366.341 220.384C365.567 211.093 364.803 201.528 366.671 192.713L359.759 182.845L358.128 180.75L356.769 179.09C353.054 174.961 348.678 170.356 344.171 166.712L331.101 160.366L331.978 150.144Z" fill="#FB7B3C"/>
<path d="M336.825 54.2677L339.447 49.2072L341.295 45.3713C351.79 51.4642 361.135 63.9535 368.585 73.8215L371.273 77.2424L371.405 77.4246L372.951 79.5803C378.571 87.2723 379.062 87.9201 375.564 101.725C374.309 106.188 370.33 112.717 366.332 118.981L360.032 129.619L355.836 139.638L359.457 140.762L364.794 148.059H355.28L353.62 148.93L345.963 139.223V139.011L346.623 136.956L351.102 127.351L351.687 125.034L358.58 113.233C361.881 107.656 365.549 101.907 366.322 98.9621C368.576 90.2276 368.482 89.8734 365.549 85.9768L363.88 83.6996L361.296 80.2382C354.393 71.0686 345.661 59.561 336.816 54.4397L336.825 54.2677Z" fill="#FB7B3C"/>
<path d="M313.119 154.79H336.58H341.305V159.85V368.9V374.001H336.58H313.119H308.206V368.9V159.85V154.79H313.119ZM331.742 164.951H317.814V363.779H331.742V164.951Z" fill="#FB7B3C"/>
<path d="M104.981 163.807C100.889 163.807 96.626 164.475 92.1185 165.589C87.6016 166.894 82.8587 168.696 78.106 171.064C53.4373 182.987 29.1739 207.439 24.5061 231.75L23.0448 244.361L21.2715 258.53C20.6868 265.038 19.5271 271.809 16.7453 277.153C13.5108 283.124 8.46579 287.294 0.440918 287.294V276.94L8.39972 271.981C10.3423 268.327 11.3139 262.983 11.7005 257.528C12.172 252.427 12.7472 247.68 13.4733 242.964L15.0952 230.414V230.292V229.776C20.2439 202.217 47.2513 174.607 74.1266 161.52C79.3697 159.01 84.7256 156.915 89.7801 155.569C95.0985 154.101 100.115 153.271 105 153.271V163.807H104.981Z" fill="#FB7B3C"/>
</svg>
