<?xml version="1.0" encoding="utf-8"?>
<!-- Generator: Adobe Illustrator 15.0.0, SVG Export Plug-In  -->
<!DOCTYPE svg PUBLIC "-//W3C//DTD SVG 1.1//EN" "http://www.w3.org/Graphics/SVG/1.1/DTD/svg11.dtd" [
	<!ENTITY ns_flows "http://ns.adobe.com/Flows/1.0/">
]>
<svg version="1.1"
	 xmlns="http://www.w3.org/2000/svg" xmlns:xlink="http://www.w3.org/1999/xlink" xmlns:a="http://ns.adobe.com/AdobeSVGViewerExtensions/3.0/"
	 x="0px" y="0px" width="842px" height="595px" viewBox="-284.637 -263.803 842 595"
	 overflow="visible" enable-background="new -284.637 -263.803 842 595" xml:space="preserve">
<defs>
</defs>
<path d="M32.801,38.341L32.801,38.341c1.74,0,3.312,0.811,4.454,2.111c1.126,1.287,1.829,3.059,1.829,5.02
	c0,1.945-0.703,3.729-1.829,5.016c-1.142,1.297-2.714,2.107-4.454,2.107s-3.313-0.811-4.459-2.107
	c-1.125-1.287-1.825-3.07-1.825-5.016c0-1.961,0.7-3.732,1.825-5.02C29.487,39.152,31.061,38.341,32.801,38.341 M32.801,39.027
	L32.801,39.027c-1.535,0-2.935,0.723-3.936,1.865c-1.027,1.17-1.671,2.795-1.671,4.58c0,1.779,0.644,3.393,1.671,4.561
	c1.001,1.152,2.4,1.885,3.936,1.885c1.533,0,2.928-0.732,3.936-1.885c1.03-1.168,1.67-2.781,1.67-4.561c0-1.785-0.64-3.41-1.67-4.58
	C35.729,39.75,34.334,39.027,32.801,39.027 M32.289,38.548L32.289,38.548c-0.289,0-0.592,0.045-0.91,0.117
	c-0.318,0.086-0.655,0.205-0.99,0.361c-1.744,0.785-3.461,2.395-3.79,3.996l-0.103,0.832l-0.125,0.934
	c-0.041,0.428-0.123,0.875-0.321,1.227c-0.228,0.393-0.585,0.668-1.153,0.668V46l0.562-0.326c0.139-0.24,0.206-0.592,0.234-0.951
	c0.033-0.336,0.074-0.648,0.124-0.961l0.114-0.826v-0.008v-0.033c0.365-1.816,2.273-3.635,4.174-4.496
	c0.371-0.166,0.75-0.305,1.106-0.393c0.376-0.096,0.731-0.15,1.077-0.15V38.548z"/>
<path d="M32.604,37.896L32.604,37.896l0.832-0.02c0.281,0.02,0.596,0.062,0.92,0.152c1.594,0.375,3.383,1.418,4.188,2.562v0.012
	l0.247,0.389l0.237,0.443c0.395,0.824,0.716,1.828,0.779,2.521v0.008l0.123,0.617l0.137,0.824c0.033,0.363,0.121,0.375,0.252,0.391
	l0.668,0.18l-0.301,0.609l-0.449-0.109c-0.461-0.055-0.754-0.088-0.85-1.006l-0.131-0.734l-0.119-0.703v-0.014
	c-0.066-0.617-0.361-1.531-0.726-2.279l-0.22-0.414l-0.201-0.344h-0.01v-0.01L32.604,37.896z M32.699,38.57l-0.096-0.674
	L32.699,38.57z M33.395,38.554l-0.695,0.016L33.395,38.554z M34.191,38.687l-0.797-0.133L34.191,38.687z M37.98,40.972
	c-0.715-1.02-2.334-1.936-3.789-2.285L37.98,40.972z"/>
<path d="M32.165,27.798L32.165,27.798l0.028-0.014l0.295,0.047l0.115,0.021l0.078,0.012l0.549,0.367l0.334,0.438l0.174,0.417v0.009
	l-0.107,0.921l-0.561,0.69l-0.389,0.174l-0.289,0.035l-0.879-0.274c-0.271-0.187-0.488-0.468-0.562-0.835l-0.037-0.29
	c0-0.516,0.242-1.122,0.627-1.457l0.285-0.175L32.165,27.798z M32.205,28.479l-0.096,0.02l-0.123,0.084
	c-0.248,0.197-0.385,0.584-0.385,0.933l0.021,0.163l0.268,0.398l0.502,0.15l0.146-0.02l0.155-0.062l0.308-0.411l0.078-0.501
	l-0.078-0.179l-0.005-0.015l-0.261-0.356l-0.188-0.151l-0.205-0.033L32.205,28.479z"/>
<path d="M32.453,31.218c-1.21-0.19-1.627,0.568-1.763,1.509c-0.075,0.544-0.075,1.159-0.075,1.71l-0.012,0.658v0.014
	c-0.021,0.5-0.055,1.182,0.087,1.731c0.13,0.473,0.404,0.879,0.958,0.961h0.016l0.322,0.035l0.336,0.01
	c0.543-0.025,1.085-0.205,1.428-0.684h-0.013l0.013-0.006c0.467-0.674,0.293-2.414,0.172-3.53l-0.041-0.518
	c-0.041-0.623-0.164-1.055-0.389-1.35C33.277,31.484,32.941,31.313,32.453,31.218 M30.021,32.621
	c0.195-1.301,0.777-2.345,2.527-2.083l0.008,0.006c0.672,0.131,1.15,0.378,1.475,0.8c0.316,0.415,0.475,0.965,0.528,1.71l0.05,0.508
	c0.127,1.211,0.321,3.106-0.309,3.991c-0.481,0.693-1.223,0.939-1.944,0.971l-0.413-0.008l-0.389-0.031v-0.012v0.012
	c-0.898-0.143-1.331-0.746-1.511-1.473c-0.178-0.658-0.144-1.395-0.122-1.938l0.014-0.637
	C29.936,33.866,29.936,33.228,30.021,32.621"/>
<path d="M31.286,31.484L31.286,31.484l-0.22,0.281l-0.206,0.315c-0.356,0.551-0.646,1.201-0.773,1.73l-0.261,0.789l-0.036,0.086
	l0.329-0.444V34.23l0.58-0.864c0.307-0.42,0.614-0.865,0.787-1.268l0.014-0.018l0.197-0.4l0.312-0.834h0.686
	c0,0.426-0.206,0.795-0.394,1.146l-0.183,0.37l-0.009,0.021V32.37v0.014c-0.197,0.465-0.533,0.93-0.855,1.374l-0.545,0.81
	c-0.07,0.129-0.562,0.79-0.906,1.139l-0.273,0.234l-0.58-0.072l-0.074-0.26c0-0.459,0.16-0.867,0.311-1.258l0.229-0.679l0.014-0.015
	c0.137-0.595,0.457-1.314,0.852-1.945l0.237-0.345l0.243-0.315L31.286,31.484z M32.118,32.362L32.118,32.362v0.008V32.362z
	 M32.109,32.37h0.009H32.109z"/>
<path d="M33.277,31.505h-0.015l0.192-0.342l0.131-0.248c0.762,0.398,1.441,1.229,1.969,1.901l0.197,0.227l0.117,0.151
	c0.413,0.518,0.441,0.563,0.188,1.482c-0.089,0.303-0.378,0.733-0.663,1.143l-0.456,0.727l-0.302,0.67l0.26,0.076l0.378,0.488h-0.68
	l-0.11,0.055l-0.549-0.646v-0.012l0.033-0.154l0.323-0.631l0.042-0.15l0.498-0.797c0.25-0.372,0.504-0.758,0.562-0.954
	c0.176-0.584,0.154-0.605-0.059-0.865l-0.117-0.15h-0.006l-0.186-0.24C34.533,32.621,33.9,31.849,33.277,31.505 M35.219,33.476
	h-0.006H35.219z"/>
<path d="M71.23,37.738L71.23,37.738l0.041,0.584l0.006,0.096l-0.152,0.107l-0.391,0.469c-0.754,1.037-1.646,2.904-1.734,3.459v0.012
	c-0.316,1.73,0.85,3.457,2.004,5.104c0.02-0.572,0.025-1.16,0.025-1.713c0-1.305,0.076-2.605,0.152-3.91
	c0.074-1.299,0.15-2.596,0.15-3.875h0.68c0,1.322-0.074,2.619-0.152,3.918c-0.068,1.297-0.15,2.594-0.15,3.867
	c0,0.75-0.021,1.508-0.055,2.262l-0.021,0.391l0.207,0.303c1.4,2.061,1.121,2.348-0.061,3.604l-0.221,0.227l-0.582-0.227v-0.268
	v-0.328l-0.035-0.746l-0.027-0.768v-0.008c0-0.523,0.02-1.055,0.041-1.596l-0.447-0.635c-1.24-1.789-2.539-3.68-2.182-5.711
	c0.098-0.615,1.051-2.664,1.867-3.762l0.465-0.562L71.23,37.738z M71.648,51.535c0.461-0.541,0.529-0.898-0.049-1.836l-0.008,0.598
	v0.008l0.035,0.73L71.648,51.535z"/>
<path d="M71.477,31.028c-1.201-0.182-1.613,0.572-1.75,1.514c-0.082,0.543-0.082,1.158-0.082,1.713l-0.006,0.654v0.014
	c-0.021,0.502-0.055,1.182,0.088,1.731c0.123,0.473,0.398,0.877,0.953,0.961l0.344,0.033h0.322c0.549-0.02,1.092-0.191,1.428-0.68
	c0.473-0.672,0.303-2.409,0.188-3.528l-0.057-0.507v-0.012c-0.049-0.613-0.164-1.05-0.379-1.341
	C72.307,31.3,71.971,31.128,71.477,31.028 M69.055,32.438c0.191-1.302,0.773-2.348,2.531-2.079h0.006
	c0.674,0.13,1.133,0.382,1.463,0.804c0.322,0.408,0.475,0.961,0.529,1.705l0.055,0.511c0.115,1.212,0.316,3.103-0.309,3.98
	c-0.482,0.691-1.221,0.936-1.957,0.975h-0.396l-0.393-0.045c-0.904-0.133-1.324-0.736-1.523-1.471
	c-0.172-0.662-0.137-1.393-0.102-1.935l0.006-0.628C68.965,33.677,68.965,33.043,69.055,32.438"/>
<path d="M70.316,31.3L70.316,31.3l-0.211,0.281l-0.221,0.316c-0.342,0.549-0.639,1.199-0.768,1.729l-0.262,0.789l-0.027,0.076
	l0.32-0.43v-0.014l0.586-0.868c0.303-0.419,0.619-0.86,0.787-1.254l0.008-0.028l0.197-0.398l0.303-0.838h0.682
	c0,0.425-0.193,0.803-0.379,1.16l-0.184,0.351l-0.008,0.026v-0.014v0.014c-0.207,0.466-0.529,0.935-0.852,1.373l-0.541,0.812
	c-0.078,0.128-0.572,0.789-0.914,1.135l-0.268,0.238l-0.584-0.078l-0.074-0.254c0-0.454,0.156-0.866,0.307-1.269l0.234-0.673
	l0.008-0.008c0.139-0.6,0.467-1.318,0.852-1.937l0.238-0.347l0.242-0.326L70.316,31.3z M71.148,32.172L71.148,32.172l-0.008,0.013
	L71.148,32.172z"/>
<path d="M71.82,27.831c0.385,0.095,0.596,0.42,0.691,0.795c0.084,0.318,0.109,0.662,0.109,0.922c0,0.55-0.369,0.906-0.828,1.072
	l-0.504,0.084l-0.506-0.084c-0.43-0.152-0.77-0.494-0.77-1.072l0.229-0.834l0.344-0.432l0.768-0.367l0.275-0.074L71.82,27.831z
	 M71.863,28.815l-0.152-0.283l-0.193,0.047l-0.447,0.187l-0.232,0.274l-0.027,0.035l-0.115,0.473l0.314,0.433l0.268,0.042
	l0.297-0.055l0.363-0.42L71.863,28.815z"/>
<path d="M72.293,31.32L72.293,31.32l0.199-0.344l0.129-0.247c0.756,0.398,1.43,1.23,1.965,1.902l0.184,0.227v0.01l0.119,0.141
	c0.412,0.521,0.443,0.562,0.184,1.482c-0.088,0.293-0.377,0.735-0.658,1.147l-0.439,0.723l-0.014-0.008l-0.301,0.67l0.268,0.084
	l0.377,0.486h-0.682l-0.115,0.055l-0.543-0.656L73,36.839l0.324-0.625l0.031-0.164l0.502-0.791c0.248-0.37,0.502-0.754,0.557-0.954
	c0.172-0.579,0.152-0.605-0.055-0.865l-0.117-0.151l-0.186-0.235C73.562,32.438,72.932,31.669,72.293,31.32"/>
<path d="M74.307,50.705L74.307,50.705l0.582,0.248l0.254,0.596l-0.254,0.598l-0.582,0.234l-0.586-0.234l-0.234-0.598l0.234-0.596
	L74.307,50.705z M74.307,50.82L74.307,50.82l-0.494,0.215l-0.207,0.514l0.207,0.51l0.494,0.205l0.498-0.205l0.207-0.51l-0.207-0.514
	L74.307,50.82z"/>
<path d="M74.379,51.482l0.174-0.043l0.061-0.15l-0.09-0.152l-0.121-0.02h-0.344v0.365H74.379z M73.908,50.984h0.494l0.197,0.043
	l0.15,0.252l-0.041,0.15L74.6,51.523l0.096,0.082l0.035,0.125l0.016,0.143l0.004,0.096l0.041,0.068v0.021h-0.17L74.6,52.007v-0.066
	l-0.014-0.186l-0.074-0.146l-0.133-0.004h-0.32v0.453h-0.15V50.984z"/>
<path d="M53.471,28.606l-0.143,0.283l-0.077,0.735l0.358,0.413l0.283,0.053l0.279-0.049l0.302-0.417l-0.115-0.474l-0.022-0.034
	l-0.238-0.274l-0.434-0.179L53.471,28.606z M52.675,28.716c0.11-0.377,0.311-0.691,0.694-0.789l0.184,0.012l0.271,0.08l0.746,0.35
	l0.342,0.426l0.23,0.831c0,0.562-0.326,0.913-0.756,1.05l-0.494,0.086l-0.494-0.086c-0.458-0.15-0.818-0.51-0.818-1.05
	L52.675,28.716z"/>
<path d="M53.932,31.106c-1.188-0.176-1.588,0.574-1.729,1.49c-0.076,0.543-0.076,1.148-0.076,1.688l-0.01,0.65v0.01
	c-0.023,0.489-0.057,1.161,0.086,1.7c0.128,0.475,0.389,0.867,0.946,0.949l0.329,0.035h0.322c0.535-0.021,1.07-0.195,1.407-0.672
	c0.466-0.66,0.288-2.366,0.171-3.473l-0.04-0.506c-0.041-0.607-0.165-1.04-0.378-1.336C54.742,31.376,54.408,31.202,53.932,31.106
	 M51.545,32.501c0.182-1.283,0.768-2.313,2.482-2.053h0.014c0.659,0.13,1.126,0.379,1.448,0.786c0.302,0.407,0.468,0.95,0.519,1.688
	l0.043,0.498c0.119,1.188,0.317,3.061-0.289,3.926h-0.01c-0.477,0.684-1.203,0.932-1.917,0.961l-0.403-0.014l-0.375-0.041h-0.01
	c-0.891-0.125-1.311-0.723-1.496-1.436c-0.172-0.65-0.137-1.373-0.104-1.915v-0.619C51.447,33.727,51.447,33.085,51.545,32.501"/>
<path d="M52.785,31.38L52.785,31.38l-0.211,0.262l-0.206,0.318c-0.353,0.555-0.642,1.18-0.755,1.697l-0.266,0.779l-0.031,0.088
	l0.314-0.431l0.01-0.015l0.568-0.852c0.296-0.411,0.611-0.844,0.776-1.235l0.005-0.032l0.193-0.389l0.305-0.824h0.669
	c0,0.416-0.191,0.792-0.376,1.136l-0.172,0.36H53.6v0.02v-0.01v0.01c-0.196,0.455-0.531,0.91-0.848,1.354l-0.529,0.799
	c-0.074,0.135-0.562,0.768-0.896,1.118l-0.271,0.225l-0.576-0.064l-0.074-0.26c0-0.454,0.166-0.842,0.318-1.245l0.223-0.658v-0.014
	c0.146-0.583,0.467-1.305,0.855-1.916l0.229-0.343l0.234-0.304L52.785,31.38z M53.609,32.243H53.6v0.01L53.609,32.243z"/>
<path d="M53.617,38.267l-0.929,0.412l-0.878,0.787l-0.11,0.111l-0.116,0.141l-0.488,0.635c0.133,0.574,0.09,1.191,0.036,1.793
	l-0.054,0.891c0,0.42-0.016,0.865-0.033,1.307c-0.009,0.445-0.021,0.898-0.021,1.303c0,0.604-0.352,0.912-0.715,1.242l-0.412,0.418
	l-0.561-0.365l0.527-0.561l0.478-0.734c0-0.428,0.021-0.879,0.036-1.326c0.02-0.438,0.027-0.885,0.027-1.283
	c0-0.326,0.027-0.639,0.055-0.939c0.041-0.611,0.104-1.215-0.041-1.699l0.021-0.25l0.64-0.865l0.127-0.15l0.133-0.131v-0.008
	c0.275-0.273,0.596-0.59,0.953-0.857c0.384-0.293,0.82-0.508,1.273-0.543L53.617,38.267z"/>
<path d="M54.336,37.648c0.449,0.035,0.875,0.262,1.264,0.557c0.365,0.268,0.682,0.592,0.961,0.873l0.118,0.143l0.14,0.146
	l0.62,0.889l0.022,0.24c-0.131,0.496-0.076,1.125-0.022,1.729c0.009,0.312,0.042,0.627,0.042,0.951c0,0.41,0.014,0.869,0.021,1.316
	c0.02,0.461,0.033,0.914,0.033,1.348l0.488,0.758l0.527,0.559l-0.562,0.369l-0.412-0.434c-0.357-0.322-0.701-0.641-0.701-1.252
	c0-0.412-0.012-0.867-0.031-1.318c-0.012-0.453-0.025-0.914-0.025-1.346l-0.053-0.9c-0.055-0.611-0.109-1.242,0.023-1.822
	l-0.489-0.65l-0.115-0.139l-0.095-0.109c-0.264-0.271-0.573-0.574-0.891-0.814l-0.924-0.418L54.336,37.648z"/>
<path d="M54.68,31.333L54.68,31.333L54.865,31l0.13-0.253c0.743,0.401,1.403,1.225,1.929,1.874l0.19,0.226l0.009,0.012L57.232,33
	c0.398,0.507,0.433,0.55,0.186,1.458c-0.088,0.295-0.369,0.725-0.652,1.137l-0.445,0.701l-0.297,0.66l0.255,0.074l0.378,0.48h-0.673
	l-0.116,0.057l-0.542-0.639v-0.016l0.048-0.135l0.315-0.633l0.042-0.152l0.486-0.777c0.233-0.368,0.494-0.747,0.549-0.94
	c0.158-0.576,0.152-0.6-0.055-0.855l-0.119-0.15l-0.182-0.228c-0.488-0.604-1.105-1.362-1.73-1.699V31.333z"/>
<path d="M53.002,37.955h1.659h0.334v0.334v13.77v0.336h-0.334h-1.659h-0.346v-0.336v-13.77v-0.334H53.002z M54.32,38.625h-0.985
	V51.72h0.985V38.625z"/>
<path fill="#FFFFFF" stroke="#FFFFFF" stroke-miterlimit="10" d="M102.967,7.754c0,3.62-6.502,6.558-14.523,6.558
	s-14.525-2.938-14.525-6.558c0-3.622,6.504-6.562,14.525-6.562S102.967,4.132,102.967,7.754"/>
<path fill="#FFFFFF" stroke="#FFFFFF" stroke-miterlimit="10" d="M80.518,17.757c0,1.807-2.096,3.281-4.684,3.281
	s-4.686-1.475-4.686-3.281c0-1.811,2.098-3.279,4.686-3.279S80.518,15.946,80.518,17.757"/>
<path fill="#FFFFFF" stroke="#FFFFFF" stroke-miterlimit="10" d="M75.139,25.059c0,1.032-1.148,1.876-2.576,1.876
	c-1.42,0-2.572-0.844-2.572-1.876c0-1.034,1.152-1.872,2.572-1.872C73.99,23.187,75.139,24.024,75.139,25.059"/>
<path fill="#FFFFFF" stroke="#FFFFFF" stroke-miterlimit="10" d="M0.5,7.433c0,3.822,6.869,6.926,15.348,6.926
	c8.471,0,15.342-3.104,15.342-6.926c0-3.831-6.871-6.933-15.342-6.933C7.369,0.5,0.5,3.602,0.5,7.433"/>
<path fill="#FFFFFF" stroke="#FFFFFF" stroke-miterlimit="10" d="M21.949,18.156c0,1.915,2.217,3.464,4.95,3.464
	c2.737,0,4.948-1.549,4.948-3.464s-2.211-3.462-4.948-3.462C24.166,14.694,21.949,16.241,21.949,18.156"/>
<path fill="#FFFFFF" stroke="#FFFFFF" stroke-miterlimit="10" d="M27.808,25.251c0,1.09,1.218,1.979,2.724,1.979
	c1.504,0,2.719-0.889,2.719-1.979c0-1.095-1.215-1.984-2.719-1.984C29.025,23.267,27.808,24.156,27.808,25.251"/>
<path fill="#FFFFFF" stroke="#FFFFFF" stroke-miterlimit="10" d="M53.428,13.45c-0.408,0-0.82-0.006-1.236-0.014
	c-7.088-0.186-13.127-1.867-15.386-4.288c-0.673-0.722-0.997-1.492-0.962-2.289c0.162-3.742,7.979-5.698,15.615-5.698
	c0.408,0,0.818,0.004,1.234,0.016c7.094,0.182,13.137,1.865,15.393,4.284c0.672,0.722,0.998,1.491,0.961,2.288
	C68.885,11.491,61.066,13.45,53.428,13.45z"/>
<path fill="#FFFFFF" stroke="#FFFFFF" stroke-miterlimit="10" d="M58.25,18.868c-0.168,1.562-2.385,2.5-4.955,2.078
	c-2.568-0.418-4.515-2.025-4.346-3.594c0.164-1.563,2.381-2.492,4.947-2.072C56.471,15.695,58.414,17.31,58.25,18.868"/>
<path fill="#FFFFFF" stroke="#FFFFFF" stroke-miterlimit="10" d="M56.826,25.469c-0.074,0.565-1.289,0.933-2.715,0.819
	c-1.429-0.109-2.527-0.659-2.458-1.222c0.077-0.563,1.293-0.934,2.718-0.823C55.799,24.36,56.896,24.909,56.826,25.469"/>
</svg>
