<?xml version="1.0" encoding="utf-8"?>
<!-- Generator: Adobe Illustrator 15.0.0, SVG Export Plug-In  -->
<!DOCTYPE svg PUBLIC "-//W3C//DTD SVG 1.1//EN" "http://www.w3.org/Graphics/SVG/1.1/DTD/svg11.dtd" [
	<!ENTITY ns_flows "http://ns.adobe.com/Flows/1.0/">
]>
<svg version="1.1"
	 xmlns="http://www.w3.org/2000/svg" xmlns:xlink="http://www.w3.org/1999/xlink" xmlns:a="http://ns.adobe.com/AdobeSVGViewerExtensions/3.0/"
	 x="0px" y="0px" width="842px" height="595px" viewBox="-404.604 -226.292 842 595"
	 overflow="visible" enable-background="new -404.604 -226.292 842 595" xml:space="preserve">
<defs>
</defs>
<path fill="#FFFFFF" d="M31.951,59.012L31.951,59.012c2.61,0,4.97,1.217,6.683,3.166c1.688,1.932,2.744,4.588,2.744,7.529
	c0,2.918-1.057,5.594-2.744,7.526c-1.713,1.945-4.072,3.16-6.683,3.16s-4.969-1.215-6.687-3.16
	c-1.689-1.932-2.738-4.608-2.738-7.526c0-2.941,1.049-5.598,2.738-7.529C26.982,60.229,29.341,59.012,31.951,59.012 M31.951,60.039
	L31.951,60.039c-2.302,0-4.4,1.084-5.903,2.799c-1.541,1.754-2.505,4.191-2.505,6.869c0,2.67,0.964,5.09,2.505,6.842
	c1.503,1.729,3.602,2.826,5.903,2.826c2.3,0,4.394-1.098,5.905-2.826c1.545-1.752,2.503-4.172,2.503-6.842
	c0-2.678-0.958-5.115-2.503-6.869C36.345,61.123,34.251,60.039,31.951,60.039"/>
<path fill="#FFFFFF" d="M31.655,58.344L31.655,58.344l1.25-0.029c0.42,0.029,0.892,0.094,1.379,0.229
	c2.39,0.562,5.073,2.127,6.28,3.844v0.018l0.372,0.584l0.355,0.664c0.591,1.236,1.074,2.742,1.168,3.781v0.012l0.185,0.926
	l0.206,1.236c0.049,0.545,0.181,0.564,0.379,0.588l1,0.268l-0.451,0.916l-0.672-0.164c-0.693-0.084-1.133-0.133-1.276-1.51
	l-0.194-1.102l-0.181-1.055v-0.021c-0.1-0.926-0.54-2.297-1.087-3.418l-0.331-0.621l-0.3-0.516h-0.017v-0.016L31.655,58.344z
	 M31.799,59.354l-0.144-1.01L31.799,59.354z M32.842,59.33l-1.043,0.023L32.842,59.33z M34.037,59.529l-1.195-0.199L34.037,59.529z
	 M39.721,62.957c-1.071-1.527-3.499-2.902-5.684-3.428L39.721,62.957z"/>
<path fill="#FFFFFF" d="M30.999,43.197L30.999,43.197l0.041-0.021l0.442,0.07l0.173,0.033l0.117,0.018l0.823,0.551l0.501,0.656
	l0.261,0.625v0.014l-0.159,1.381l-0.842,1.035l-0.584,0.262l-0.434,0.053l-1.316-0.412c-0.406-0.279-0.734-0.701-0.844-1.252
	l-0.057-0.436c0-0.773,0.362-1.684,0.939-2.186l0.428-0.262L30.999,43.197z M31.06,44.219l-0.146,0.029l-0.183,0.127
	c-0.373,0.295-0.579,0.875-0.579,1.398l0.032,0.244l0.401,0.598l0.753,0.227l0.221-0.029l0.233-0.094l0.46-0.617l0.117-0.752
	l-0.117-0.268l-0.006-0.021l-0.393-0.535l-0.279-0.227l-0.31-0.051L31.06,44.219z"/>
<path fill="#FFFFFF" d="M31.431,48.326c-1.814-0.285-2.439,0.854-2.644,2.264c-0.114,0.816-0.114,1.738-0.114,2.564l-0.018,0.988
	v0.02c-0.032,0.752-0.08,1.773,0.132,2.596c0.193,0.711,0.606,1.318,1.437,1.441h0.022l0.485,0.053l0.502,0.016
	c0.816-0.039,1.629-0.307,2.143-1.025h-0.019l0.019-0.01c0.701-1.01,0.438-3.619,0.258-5.293l-0.061-0.777
	c-0.062-0.934-0.248-1.582-0.584-2.023C32.666,48.727,32.162,48.471,31.431,48.326 M27.782,50.432
	c0.293-1.951,1.166-3.518,3.793-3.125l0.01,0.01c1.008,0.195,1.726,0.566,2.212,1.199c0.475,0.623,0.712,1.447,0.794,2.564
	l0.073,0.762c0.19,1.816,0.483,4.658-0.463,5.986c-0.721,1.041-1.834,1.41-2.915,1.457l-0.621-0.014l-0.583-0.047v-0.018v0.018
	c-1.348-0.213-1.995-1.119-2.265-2.209c-0.267-0.986-0.217-2.09-0.185-2.906l0.021-0.955C27.653,52.299,27.653,51.342,27.782,50.432
	"/>
<path fill="#FFFFFF" d="M29.681,48.727L29.681,48.727l-0.331,0.422l-0.308,0.473c-0.536,0.826-0.97,1.803-1.16,2.596L27.489,53.4
	l-0.053,0.129l0.492-0.666v-0.018l0.871-1.297c0.461-0.629,0.922-1.297,1.182-1.9L30,49.621l0.298-0.6l0.467-1.252h1.028
	c0,0.639-0.311,1.193-0.592,1.719l-0.272,0.555l-0.015,0.033v-0.021v0.021c-0.296,0.697-0.8,1.395-1.283,2.061l-0.817,1.215
	c-0.105,0.193-0.844,1.184-1.357,1.707l-0.412,0.352l-0.87-0.107l-0.111-0.389c0-0.689,0.24-1.301,0.466-1.889l0.343-1.018
	l0.021-0.021c0.205-0.893,0.688-1.973,1.277-2.918l0.357-0.518l0.363-0.473L29.681,48.727z M30.929,50.043L30.929,50.043v0.012
	V50.043z M30.914,50.055h0.015H30.914z"/>
<path fill="#FFFFFF" d="M32.666,48.758h-0.021l0.287-0.514l0.196-0.371c1.143,0.598,2.162,1.842,2.953,2.852l0.296,0.34l0.176,0.227
	c0.621,0.777,0.662,0.846,0.284,2.225c-0.135,0.453-0.568,1.1-0.996,1.715l-0.683,1.09l-0.454,1.004l0.39,0.113l0.568,0.732h-1.02
	l-0.166,0.082l-0.824-0.969v-0.018l0.051-0.23l0.485-0.947l0.062-0.227l0.748-1.193c0.375-0.559,0.755-1.139,0.843-1.432
	c0.264-0.875,0.231-0.908-0.088-1.297l-0.176-0.227h-0.007l-0.28-0.359C34.552,50.432,33.603,49.273,32.666,48.758 M35.578,51.713
	h-0.007H35.578z"/>
<path fill="#FFFFFF" d="M73.096,58.105L73.096,58.105l0.062,0.877l0.009,0.143l-0.228,0.162l-0.587,0.703
	c-1.13,1.555-2.468,4.357-2.599,5.189v0.016c-0.477,2.598,1.273,5.186,3.003,7.657c0.029-0.86,0.04-1.741,0.04-2.569
	c0-1.957,0.112-3.908,0.229-5.865c0.111-1.949,0.224-3.895,0.224-5.812h1.02c0,1.982-0.111,3.928-0.228,5.875
	c-0.102,1.945-0.224,3.891-0.224,5.803c0,1.125-0.032,2.26-0.085,3.391l-0.029,0.588l0.311,0.453c2.1,3.09,1.679,3.521-0.094,5.406
	l-0.331,0.34l-0.873-0.34v-0.402v-0.492l-0.053-1.119l-0.041-1.152v-0.012c0-0.785,0.029-1.58,0.062-2.393l-0.668-0.953
	c-1.86-2.684-3.809-5.52-3.273-8.567c0.145-0.922,1.576-3.996,2.799-5.643l0.699-0.842L73.096,58.105z M73.723,78.801
	c0.691-0.811,0.794-1.348-0.071-2.752l-0.012,0.895v0.012l0.051,1.096L73.723,78.801z"/>
<path fill="#FFFFFF" d="M73.465,48.043c-1.802-0.273-2.42,0.857-2.622,2.27c-0.123,0.814-0.123,1.738-0.123,2.57l-0.012,0.98v0.021
	c-0.032,0.752-0.082,1.771,0.135,2.596c0.182,0.709,0.595,1.316,1.43,1.441l0.513,0.051h0.483c0.823-0.031,1.638-0.289,2.143-1.02
	c0.711-1.01,0.455-3.613,0.28-5.293l-0.085-0.76v-0.018c-0.073-0.92-0.246-1.574-0.568-2.012
	C74.712,48.449,74.206,48.191,73.465,48.043 M69.832,50.158c0.29-1.953,1.163-3.521,3.797-3.119h0.011
	c1.009,0.195,1.699,0.572,2.192,1.205c0.483,0.613,0.712,1.441,0.794,2.559l0.082,0.766c0.176,1.818,0.477,4.654-0.463,5.969
	c-0.721,1.037-1.831,1.404-2.936,1.463h-0.595l-0.589-0.068c-1.356-0.197-1.986-1.104-2.285-2.205
	c-0.255-0.992-0.205-2.09-0.152-2.902l0.009-0.941C69.697,52.016,69.697,51.064,69.832,50.158"/>
<path fill="#FFFFFF" d="M71.725,48.449L71.725,48.449l-0.316,0.422l-0.331,0.475c-0.513,0.824-0.958,1.799-1.151,2.594l-0.393,1.184
	l-0.041,0.113l0.481-0.645v-0.02l0.878-1.303c0.454-0.629,0.929-1.291,1.183-1.881l0.012-0.043l0.297-0.598l0.453-1.256h1.021
	c0,0.637-0.288,1.203-0.568,1.74l-0.275,0.525l-0.012,0.039v-0.02v0.02c-0.311,0.699-0.792,1.402-1.277,2.061l-0.81,1.219
	c-0.117,0.191-0.86,1.184-1.373,1.701l-0.398,0.359l-0.879-0.117l-0.111-0.383c0-0.68,0.236-1.297,0.463-1.902l0.349-1.01
	l0.012-0.012c0.208-0.898,0.7-1.977,1.277-2.904l0.358-0.52l0.362-0.49L71.725,48.449z M72.973,49.758L72.973,49.758l-0.012,0.02
	L72.973,49.758z"/>
<path fill="#FFFFFF" d="M73.981,43.246c0.576,0.143,0.895,0.631,1.039,1.193c0.123,0.477,0.164,0.992,0.164,1.383
	c0,0.824-0.557,1.359-1.245,1.607l-0.753,0.127l-0.76-0.127c-0.646-0.229-1.154-0.74-1.154-1.607l0.341-1.252l0.516-0.646
	l1.151-0.551l0.413-0.111L73.981,43.246z M74.045,44.723l-0.229-0.424l-0.288,0.07l-0.67,0.279l-0.352,0.412l-0.041,0.053
	l-0.173,0.709l0.474,0.648l0.399,0.062l0.445-0.082l0.545-0.629L74.045,44.723z"/>
<path fill="#FFFFFF" d="M74.689,48.48L74.689,48.48l0.299-0.516l0.196-0.371c1.131,0.598,2.142,1.846,2.944,2.854l0.278,0.34v0.016
	l0.176,0.211c0.618,0.781,0.668,0.844,0.277,2.223c-0.134,0.439-0.566,1.102-0.989,1.721l-0.659,1.084l-0.02-0.012l-0.452,1.006
	l0.401,0.125l0.565,0.73h-1.021l-0.175,0.082L75.7,56.986l0.053-0.229l0.483-0.938l0.05-0.246l0.753-1.186
	c0.369-0.555,0.75-1.131,0.832-1.43c0.258-0.869,0.229-0.908-0.082-1.299l-0.176-0.227l-0.276-0.354
	C76.597,50.158,75.649,49.004,74.689,48.48"/>
<path fill="#FFFFFF" d="M77.71,77.557L77.71,77.557l0.873,0.371l0.383,0.895l-0.383,0.896l-0.873,0.352l-0.877-0.352l-0.352-0.896
	l0.352-0.895L77.71,77.557z M77.71,77.731L77.71,77.731l-0.741,0.32l-0.311,0.771l0.311,0.764l0.741,0.309l0.75-0.309l0.308-0.764
	l-0.308-0.771L77.71,77.731z"/>
<path fill="#FFFFFF" d="M77.818,78.723l0.264-0.064l0.088-0.227l-0.132-0.227l-0.185-0.029h-0.515v0.547H77.818z M77.112,77.975
	h0.741l0.298,0.064l0.224,0.379l-0.062,0.227l-0.162,0.141l0.143,0.121l0.052,0.188l0.023,0.215l0.006,0.143l0.063,0.104v0.031
	h-0.256l-0.031-0.074v-0.102l-0.022-0.277l-0.108-0.219l-0.202-0.008h-0.479v0.68h-0.227V77.975z"/>
<path fill="#FFFFFF" d="M53.958,44.41l-0.216,0.424l-0.114,1.104l0.536,0.619l0.425,0.08l0.419-0.074l0.454-0.625l-0.173-0.711
	l-0.034-0.051l-0.358-0.412l-0.65-0.268L53.958,44.41z M52.764,44.574c0.165-0.566,0.466-1.037,1.042-1.184l0.275,0.018l0.405,0.119
	l1.119,0.525l0.515,0.639l0.346,1.246c0,0.844-0.491,1.369-1.136,1.574l-0.741,0.129l-0.741-0.129
	c-0.686-0.225-1.228-0.764-1.228-1.574L52.764,44.574z"/>
<path fill="#FFFFFF" d="M54.647,48.16c-1.781-0.264-2.382,0.861-2.593,2.234c-0.112,0.814-0.112,1.723-0.112,2.531l-0.017,0.977
	v0.014c-0.035,0.732-0.085,1.74,0.129,2.549c0.193,0.713,0.585,1.301,1.421,1.426l0.492,0.051h0.483
	c0.804-0.031,1.605-0.293,2.112-1.008c0.699-0.99,0.432-3.547,0.255-5.209l-0.059-0.758c-0.062-0.912-0.249-1.561-0.568-2.004
	C55.863,48.564,55.364,48.303,54.647,48.16 M51.067,50.252c0.272-1.926,1.151-3.471,3.724-3.08h0.021
	c0.99,0.195,1.69,0.568,2.174,1.18c0.453,0.611,0.7,1.426,0.776,2.533l0.065,0.746c0.178,1.781,0.477,4.592-0.435,5.889h-0.015
	c-0.713,1.027-1.803,1.398-2.874,1.441l-0.606-0.02l-0.562-0.062H53.32c-1.336-0.188-1.966-1.082-2.244-2.152
	c-0.258-0.977-0.205-2.059-0.153-2.871v-0.93C50.923,52.09,50.923,51.127,51.067,50.252"/>
<path fill="#FFFFFF" d="M52.929,48.57L52.929,48.57l-0.317,0.393l-0.308,0.477c-0.529,0.832-0.964,1.77-1.134,2.547l-0.398,1.168
	l-0.046,0.133l0.473-0.646l0.013-0.021l0.853-1.277c0.445-0.617,0.917-1.266,1.166-1.854l0.008-0.049l0.288-0.582l0.457-1.236h1.005
	c0,0.623-0.287,1.188-0.565,1.703l-0.258,0.541h-0.015v0.029v-0.016v0.016c-0.293,0.682-0.797,1.365-1.271,2.029l-0.794,1.199
	c-0.111,0.201-0.844,1.15-1.343,1.676l-0.409,0.338l-0.864-0.098l-0.109-0.391c0-0.68,0.247-1.262,0.477-1.865l0.333-0.988v-0.02
	c0.22-0.875,0.702-1.957,1.283-2.875l0.343-0.514l0.352-0.455L52.929,48.57z M54.164,49.865h-0.015v0.014L54.164,49.865z"/>
<path fill="#FFFFFF" d="M54.176,58.9l-1.392,0.617l-1.318,1.182l-0.164,0.168l-0.174,0.209l-0.732,0.953
	c0.197,0.861,0.135,1.787,0.054,2.689l-0.082,1.336c0,0.629-0.023,1.299-0.048,1.961c-0.014,0.666-0.034,1.346-0.034,1.953
	c0,0.906-0.527,1.367-1.072,1.863l-0.618,0.627l-0.841-0.549l0.792-0.84l0.717-1.102c0-0.643,0.032-1.318,0.055-1.988
	c0.027-0.658,0.041-1.328,0.041-1.926c0-0.488,0.039-0.957,0.08-1.41c0.062-0.916,0.155-1.822-0.062-2.547l0.032-0.377l0.958-1.297
	l0.19-0.227l0.199-0.195V59.99c0.413-0.41,0.894-0.885,1.43-1.287c0.577-0.438,1.232-0.762,1.912-0.812L54.176,58.9z"/>
<path fill="#FFFFFF" d="M55.255,57.973c0.673,0.051,1.312,0.391,1.895,0.834c0.548,0.4,1.022,0.887,1.443,1.309l0.177,0.215
	l0.21,0.221l0.93,1.332l0.032,0.359c-0.196,0.746-0.114,1.688-0.032,2.594c0.012,0.469,0.062,0.941,0.062,1.426
	c0,0.615,0.022,1.305,0.034,1.977c0.027,0.691,0.048,1.369,0.048,2.02l0.732,1.137l0.794,0.838l-0.847,0.555l-0.618-0.651
	c-0.535-0.484-1.051-0.961-1.051-1.879c0-0.617-0.019-1.299-0.048-1.977c-0.018-0.68-0.036-1.371-0.036-2.02l-0.081-1.35
	c-0.082-0.918-0.163-1.863,0.035-2.734l-0.732-0.975l-0.173-0.207l-0.144-0.164c-0.394-0.408-0.858-0.863-1.336-1.223l-1.386-0.627
	L55.255,57.973z"/>
<path fill="#FFFFFF" d="M55.77,48.5L55.77,48.5l0.278-0.5l0.196-0.379c1.113,0.602,2.104,1.836,2.894,2.811l0.285,0.338l0.014,0.018
	L59.601,51c0.596,0.76,0.648,0.824,0.277,2.188c-0.133,0.441-0.555,1.086-0.979,1.705l-0.668,1.051l-0.445,0.99l0.384,0.111
	l0.566,0.721h-1.009l-0.176,0.086l-0.812-0.959v-0.021l0.07-0.203l0.475-0.949l0.062-0.229l0.731-1.166
	c0.35-0.551,0.739-1.119,0.821-1.41c0.239-0.863,0.229-0.898-0.082-1.283l-0.177-0.225l-0.274-0.342
	c-0.732-0.906-1.658-2.043-2.596-2.549V48.5z"/>
<path fill="#FFFFFF" d="M53.255,58.432h2.488h0.501v0.5v20.655v0.504h-0.501h-2.488h-0.521v-0.504V58.932v-0.5H53.255z
	 M55.23,59.436h-1.477v19.645h1.477V59.436z"/>
<path fill="none" stroke="#FFFFFF" stroke-miterlimit="10" d="M82.529,28.135c0,2.711-3.146,4.922-7.028,4.922
	c-3.879,0-7.028-2.211-7.028-4.922c0-2.715,3.149-4.918,7.028-4.918C79.383,23.217,82.529,25.42,82.529,28.135"/>
<path fill="#FFFFFF" d="M77.458,39.088c0,1.549-1.72,2.814-3.861,2.814c-2.133,0-3.861-1.266-3.861-2.814
	c0-1.551,1.729-2.809,3.861-2.809C75.738,36.279,77.458,37.537,77.458,39.088"/>
<path fill="none" stroke="#FFFFFF" stroke-width="1.5" stroke-miterlimit="10" d="M0.75,11.148c0,5.734,6.779,10.389,15.146,10.389
	c8.357,0,15.139-4.654,15.139-10.389c0-5.746-6.781-10.398-15.139-10.398C7.529,0.75,0.75,5.402,0.75,11.148"/>
<path fill="none" stroke="#FFFFFF" stroke-width="1.5" stroke-miterlimit="10" d="M36.75,11.148c0,5.734,6.779,10.389,15.146,10.389
	c8.357,0,15.139-4.654,15.139-10.389c0-5.746-6.781-10.398-15.139-10.398C43.529,0.75,36.75,5.402,36.75,11.148"/>
<path fill="none" stroke="#FFFFFF" stroke-miterlimit="10" d="M17.174,28.734c0,2.873,3.327,5.195,7.427,5.195
	c4.104,0,7.421-2.322,7.421-5.195s-3.316-5.193-7.421-5.193C20.501,23.541,17.174,25.861,17.174,28.734"/>
<path fill="#FFFFFF" d="M25.963,39.377c0,1.635,1.827,2.967,4.084,2.967s4.078-1.332,4.078-2.967c0-1.643-1.821-2.977-4.078-2.977
	S25.963,37.734,25.963,39.377"/>
<path fill="none" stroke="#FFFFFF" stroke-miterlimit="10" d="M61.125,29.803c-0.252,2.342-3.577,3.75-7.433,3.117
	c-3.853-0.627-6.771-3.039-6.519-5.391c0.246-2.346,3.573-3.738,7.423-3.109C58.458,25.043,61.371,27.465,61.125,29.803"/>
<path fill="#FFFFFF" d="M58.989,39.049c-0.109,1.289-1.932,2.125-4.072,1.867c-2.142-0.249-3.789-1.503-3.686-2.785
	c0.114-1.283,1.939-2.127,4.075-1.876C57.448,36.523,59.095,37.773,58.989,39.049"/>
<path fill="#FFFFFF" d="M31.184,59.322L31.184,59.322c-0.434,0-0.886,0.066-1.364,0.176c-0.479,0.129-0.982,0.307-1.486,0.541
	c-2.616,1.178-5.189,3.594-5.684,5.996l-0.155,1.246l-0.188,1.4c-0.062,0.643-0.185,1.312-0.48,1.84
	c-0.343,0.59-0.878,1.002-1.729,1.002V70.5l0.844-0.49c0.206-0.361,0.309-0.889,0.35-1.428c0.05-0.504,0.111-0.973,0.188-1.439
	l0.172-1.24v-0.012V65.84c0.546-2.723,3.41-5.451,6.26-6.744c0.556-0.248,1.124-0.455,1.66-0.588
	c0.564-0.145,1.096-0.227,1.614-0.227V59.322z"/>
<path fill="#FFFFFF" stroke="#FFFFFF" stroke-width="1.5" stroke-miterlimit="10" d="M72.75,11.148
	c0,5.734,6.779,10.389,15.146,10.389c8.357,0,15.139-4.654,15.139-10.389c0-5.746-6.781-10.398-15.139-10.398
	C79.529,0.75,72.75,5.402,72.75,11.148"/>
</svg>
