<svg width="45" height="26" viewBox="0 0 45 26" fill="none" xmlns="http://www.w3.org/2000/svg">
<path d="M9.05754 11.0063C11.023 11.0063 12.8001 11.8553 14.0901 13.2148C15.3612 14.5624 16.1565 16.4151 16.1565 18.4666C16.1565 20.502 15.3605 22.3686 14.0901 23.7163C12.8001 25.073 11.0237 25.9205 9.05754 25.9205C7.09134 25.9205 5.31566 25.073 4.02193 23.7163C2.75004 22.3686 1.96011 20.502 1.96011 18.4666C1.96011 16.4151 2.75004 14.5617 4.02193 13.2148C5.31566 11.8553 7.09209 11.0063 9.05754 11.0063ZM9.05754 11.7227C7.32403 11.7227 5.74413 12.4789 4.61231 13.6751C3.45187 14.8986 2.72593 16.5985 2.72593 18.4666C2.72593 20.329 3.45187 22.0171 4.61231 23.2391C5.74413 24.4452 7.32478 25.2104 9.05754 25.2104C10.7895 25.2104 12.3664 24.4445 13.5043 23.2391C14.6677 22.0171 15.3891 20.329 15.3891 18.4666C15.3891 16.5985 14.6677 14.8986 13.5043 13.6751C12.3664 12.4789 10.7895 11.7227 9.05754 11.7227Z" fill="#F7712F"/>
<path d="M8.81906 10.6274L9.76256 10.6074C10.0796 10.6274 10.4359 10.6723 10.8034 10.7654C12.6074 11.153 14.6325 12.2325 15.5435 13.4168V13.4292L15.8243 13.832L16.0923 14.29C16.5384 15.1425 16.9029 16.1813 16.9739 16.898V16.9062L17.1135 17.5449L17.269 18.3975C17.306 18.7734 17.4056 18.7865 17.5551 18.803L18.3099 18.9879L17.9695 19.6197L17.4623 19.5066C16.9392 19.4487 16.6071 19.4149 16.4991 18.4651L16.3527 17.705L16.2161 16.9773V16.9628C16.1406 16.3241 15.8085 15.3784 15.3956 14.6052L15.1458 14.1769L14.9193 13.821H14.9065V13.8099L8.81906 10.6274ZM14.9073 13.8092C14.0989 12.756 12.2662 11.8083 10.617 11.4455L14.9073 13.8092Z" fill="#F7712F"/>
<path d="M8.36366 0.0146139L8.39377 0L8.71834 0.0487219L8.84535 0.0716889L8.93126 0.0842212L9.53558 0.46773L9.90348 0.92433L10.0951 1.35935V1.36909L9.97837 2.33031L9.36012 3.0507L8.93126 3.23306L8.61261 3.26995L7.64627 2.98319C7.34815 2.789 7.10731 2.49527 7.02654 2.11175L6.98468 1.80829C6.98468 1.27025 7.25051 0.636173 7.67419 0.286766L7.98845 0.104406L8.36366 0.0146139ZM8.40771 0.725263L8.30051 0.745448L8.16615 0.833843C7.89226 1.03917 7.74101 1.44287 7.74101 1.80689L7.7645 1.97672L8.05895 2.39295L8.61185 2.55095L8.77414 2.53077L8.94525 2.46534L9.28299 2.03589L9.3689 1.51247L9.28299 1.32594L9.2786 1.31132L8.99002 0.938944L8.78516 0.780947L8.55753 0.745448L8.40771 0.725263Z" fill="#F7712F"/>
<path d="M8.68897 3.54331C7.31299 3.34507 6.83892 4.13736 6.68342 5.11816C6.59694 5.68578 6.59693 6.32712 6.59693 6.90169L6.58327 7.58896V7.60287C6.559 8.12596 6.52261 8.83618 6.68342 9.40866C6.82981 9.90323 7.14305 10.3255 7.77339 10.411H7.79011L8.15798 10.4479L8.53878 10.459C9.15774 10.4319 9.77444 10.2455 10.1643 9.74603H10.1499L10.1643 9.73907C10.6961 9.03651 10.4966 7.22167 10.36 6.05723L10.3137 5.51674C10.2667 4.86705 10.1256 4.41629 9.87075 4.10953C9.6265 3.82155 9.24422 3.64348 8.68897 3.54331ZM5.92183 5.00756C6.14408 3.65043 6.8063 2.56042 8.79897 2.83379L8.80652 2.84075C9.57112 2.97639 10.1158 3.23446 10.4844 3.67478C10.8447 4.10814 11.0245 4.68132 11.0867 5.45831L11.1421 5.98837C11.2862 7.25159 11.5084 9.2285 10.7909 10.1523C10.244 10.8764 9.39973 11.1331 8.57975 11.1658L8.10868 11.156L7.66645 11.1233C6.64394 10.9752 6.1532 10.3456 5.9484 9.58743C5.74587 8.90156 5.7838 8.13361 5.80807 7.566L5.824 6.90169C5.824 6.30626 5.82397 5.64056 5.92183 5.00756Z" fill="#F7712F"/>
<path d="M7.39085 3.85866L7.14203 4.15373L6.91051 4.48447C6.50757 5.06204 6.18129 5.7452 6.03845 6.2997L5.74301 7.12759L5.70319 7.21779L6.07305 6.7521V6.73951L6.7278 5.8326C7.07436 5.39278 7.42092 4.92569 7.61637 4.50405L7.63064 4.48517L7.85469 4.06563L8.20574 3.19019H8.97854C8.97854 3.637 8.74477 4.02437 8.53352 4.39217L8.32902 4.78025L8.31774 4.80333C8.09522 5.2907 7.71637 5.77876 7.35328 6.24445L6.73909 7.09403C6.66015 7.22898 6.10462 7.92193 5.71897 8.28763L5.40926 8.53376L4.75524 8.45894L4.67178 8.18694C4.67178 7.70516 4.85221 7.27723 5.0221 6.86608L5.27996 6.15425L5.29575 6.13957C5.44985 5.51515 5.81293 4.75997 6.25571 4.09919L6.52408 3.73699L6.79699 3.40625L7.39085 3.85866Z" fill="#F7712F"/>
<path d="M9.63248 3.88881H9.61658L9.8334 3.52942L9.98143 3.27002C10.8448 3.68814 11.6145 4.55794 12.212 5.26413L12.4356 5.50187L12.5685 5.66058C13.0376 6.20386 13.0685 6.2521 12.783 7.2163C12.681 7.53304 12.354 7.98542 12.0307 8.41543L11.5148 9.17755L11.1719 9.87955L11.4665 9.95856L11.8955 10.4704H11.125L10.9997 10.5277L10.3772 9.85019V9.8376L10.4158 9.67679L10.7821 9.01465L10.8289 8.85592L11.3939 8.02178C11.6772 7.63093 11.9642 7.22539 12.0307 7.02052C12.2301 6.40873 12.2052 6.38565 11.9642 6.11366L11.8313 5.95495H11.826L11.6145 5.70393C11.057 5.05927 10.3395 4.2496 9.63248 3.88881Z" fill="#F7712F"/>
<path d="M40.0021 10.4478L40.0488 11.0578L40.0556 11.1573L39.8837 11.27L39.4414 11.759C38.5898 12.8407 37.5814 14.7899 37.4827 15.3686V15.3798C37.1232 17.187 38.442 18.9873 39.7458 20.7062C39.7677 20.108 39.7759 19.4951 39.7759 18.9191C39.7759 17.5578 39.8604 16.2006 39.9485 14.8393C40.0322 13.4835 40.1173 12.1298 40.1173 10.7963H40.8861C40.8861 12.175 40.8024 13.5287 40.7143 14.8831C40.6374 16.2361 40.5454 17.5898 40.5454 18.9198C40.5454 19.7024 40.5213 20.4919 40.4814 21.2787L40.4595 21.6877L40.6939 22.0029C42.2765 24.1524 41.9592 24.4522 40.623 25.7634L40.3736 25.9999L39.7157 25.7634V25.4838V25.1415L39.6757 24.3631L39.6449 23.5618V23.5534C39.6449 23.0073 39.6667 22.4543 39.6915 21.8888L39.1881 21.2258C37.7864 19.3588 36.3176 17.386 36.7215 15.2664C36.8308 14.625 37.9092 12.4866 38.8309 11.3409L39.3577 10.7552L40.0021 10.4478ZM40.4738 24.8445C40.9946 24.2803 41.0722 23.9068 40.4203 22.9301L40.4113 23.5527V23.5611L40.4497 24.3235L40.4738 24.8445Z" fill="#F7712F"/>
<path d="M40.3076 3.37465C38.96 3.18454 38.4979 3.97145 38.3468 4.95545C38.2549 5.5223 38.2548 6.16576 38.2548 6.74516L38.2459 7.42761V7.44224C38.2219 7.96592 38.1846 8.67554 38.3468 9.25006C38.4829 9.74379 38.7918 10.1665 39.4162 10.2535L39.7999 10.2891H40.161C40.7765 10.2675 41.386 10.0878 41.7636 9.57875C42.2953 8.8754 42.1039 7.06271 41.973 5.89278L41.9094 5.36353V5.35099C41.8549 4.71032 41.7255 4.25488 41.4847 3.94987C41.2401 3.65808 40.8617 3.47841 40.3076 3.37465ZM37.5908 4.8482C37.8076 3.48816 38.4605 2.39623 40.4302 2.67618H40.4385C41.193 2.81197 41.709 3.07451 42.0777 3.51532C42.4389 3.94221 42.6101 4.51881 42.6715 5.29737L42.7328 5.8308C42.8644 7.09683 43.0895 9.07178 42.3866 9.98753C41.8474 10.7097 41.0173 10.9653 40.1909 11.0063H39.746L39.3055 10.959C38.2915 10.8218 37.8203 10.1902 37.5967 9.42346C37.406 8.73264 37.4434 7.96801 37.4831 7.40254L37.4898 6.74724C37.4898 6.14139 37.4898 5.47913 37.5908 4.8482Z" fill="#F7712F"/>
<path d="M38.9812 3.69037L38.7425 3.98093L38.4926 4.30798C38.1053 4.87533 37.7693 5.54665 37.6236 6.09404L37.3268 6.90925L37.2959 6.98706L37.6591 6.54296V6.52918L38.322 5.63203C38.6648 5.19895 39.0234 4.74314 39.2152 4.3369L39.2242 4.3073L39.4485 3.89555L39.7905 3.03076H40.5615C40.5615 3.46936 40.344 3.85906 40.1326 4.2288L39.925 4.59028L39.9151 4.61783C39.6803 5.09911 39.3171 5.58314 38.9509 6.03689L38.3393 6.87621C38.251 7.00772 37.69 7.69143 37.3027 8.0474L37.0022 8.29458L36.3385 8.21402L36.2547 7.95031C36.2547 7.48211 36.4329 7.05729 36.6043 6.64073L36.8678 5.94531L36.8769 5.93705C37.0339 5.31875 37.4054 4.57582 37.841 3.93755L38.1113 3.57952L38.3846 3.24214L38.9812 3.69037Z" fill="#F7712F"/>
<path d="M40.6909 0.0795898C41.1254 0.177498 41.366 0.511618 41.4746 0.896402C41.5674 1.22299 41.5983 1.57559 41.5983 1.8433C41.5983 2.40747 41.1781 2.77377 40.6592 2.94357L40.0912 3.03052L39.5179 2.94357C39.0306 2.78678 38.6474 2.43691 38.6474 1.8433L38.9046 0.986092L39.2938 0.543797L40.1621 0.166542L40.4736 0.0905438L40.6909 0.0795898ZM40.7391 1.09016L40.5664 0.799865L40.3492 0.847791L39.8437 1.03881L39.5782 1.3209L39.5473 1.35718L39.4168 1.84261L39.7744 2.28628L40.0753 2.32874L40.411 2.27259L40.8221 1.84193L40.7391 1.09016Z" fill="#F7712F"/>
<path d="M41.1995 3.72397L41.4261 3.36715L41.5747 3.1106C42.4318 3.52412 43.198 4.38713 43.8058 5.08418L44.0165 5.3193V5.33036L44.1499 5.47627C44.6183 6.01634 44.6562 6.05991 44.3599 7.01351C44.2583 7.31709 43.9309 7.77556 43.6103 8.20361L43.1109 8.95321L43.0957 8.94491L42.7532 9.64058L43.0571 9.72702L43.4853 10.2318H42.7115L42.5788 10.2885L41.9635 9.60669L42.0036 9.44834L42.3697 8.7997L42.4076 8.62959L42.9783 7.80945C43.2579 7.42565 43.5467 7.02734 43.6088 6.82058C43.8043 6.21965 43.7824 6.19268 43.5467 5.9223L43.4133 5.76532L43.2041 5.52053C42.6455 4.88433 41.9271 4.08563 41.1995 3.72397Z" fill="#F7712F"/>
<path d="M43.5019 23.9265L44.1744 24.1854L44.4694 24.8101L44.1744 25.4354L43.5019 25.6811L42.8265 25.4354L42.5553 24.8101L42.8265 24.1854L43.5019 23.9265ZM43.5019 24.0473L42.9312 24.2706L42.6916 24.8087L42.9312 25.3419L43.5019 25.5576L44.0797 25.3419L44.3169 24.8087L44.0797 24.2706L43.5019 24.0473Z" fill="#F7712F"/>
<path d="M43.5859 24.7634L43.7923 24.7191L43.8611 24.562L43.7579 24.4048L43.6132 24.3847H43.2106V24.7634H43.5859ZM43.0339 24.2456H43.6132L43.8463 24.2899L44.0214 24.5523L43.9729 24.7094L43.8463 24.807L43.9581 24.8908L43.9988 25.0209L44.0168 25.1697L44.0214 25.2687L44.0707 25.3407V25.3622H43.8705L43.8463 25.3109V25.2403L43.8291 25.0486L43.7446 24.897L43.5867 24.8915H43.2121V25.3622H43.0346L43.0339 24.2456Z" fill="#F7712F"/>
<path d="M25.6101 0.86765L25.4489 1.16205L25.3637 1.9286L25.7639 2.35839L26.0812 2.41393L26.394 2.36256L26.7329 1.9286L26.6038 1.43492L26.5784 1.39951L26.3111 1.11344L25.8251 0.927362L25.6101 0.86765ZM24.718 0.981522C24.8412 0.588528 25.0659 0.261491 25.4959 0.159424L25.7012 0.171926L26.0035 0.254549L26.8389 0.619076L27.2234 1.06276L27.4817 1.9279C27.4817 2.51392 27.1151 2.87845 26.6336 3.02078L26.0804 3.11035L25.5272 3.02078C25.0151 2.86456 24.6105 2.49031 24.6105 1.9279L24.718 0.981522Z" fill="#F7712F"/>
<path d="M26.1537 3.44683C24.8207 3.26204 24.371 4.04949 24.2131 5.01054C24.1292 5.58031 24.1292 6.21658 24.1292 6.78215L24.1165 7.46601V7.47581C24.0903 7.98818 24.0529 8.69374 24.2131 9.26001C24.3575 9.75909 24.6508 10.1707 25.2765 10.2582L25.6447 10.2939H26.0063C26.608 10.2722 27.2075 10.0888 27.5869 9.5883C28.1101 8.89533 27.9102 7.10553 27.7778 5.94219L27.7336 5.41162C27.6872 4.77325 27.5472 4.31898 27.3085 4.0089C27.0638 3.72961 26.6903 3.54622 26.1537 3.44683ZM23.4744 4.91044C23.6779 3.56232 24.3358 2.48088 26.2615 2.75456H26.2772C27.0181 2.89106 27.542 3.15214 27.9042 3.58052C28.2432 4.0082 28.4281 4.57866 28.485 5.35352L28.5336 5.8757C28.6668 7.12233 28.8906 9.08992 28.2081 9.99777H28.1969C27.6633 10.7166 26.8475 10.9763 26.0459 11.0064L25.5924 10.9924L25.1717 10.949H25.1605C24.1607 10.8174 23.6891 10.1917 23.4811 9.4427C23.288 8.75884 23.3276 8.00148 23.3666 7.43311V6.78215C23.3666 6.19698 23.3666 5.52291 23.4744 4.91044Z" fill="#F7712F"/>
<path d="M24.8179 3.76386L24.5798 4.03497L24.3485 4.36402C23.9512 4.93795 23.6245 5.58501 23.4968 6.12101L23.1978 6.92673L23.1633 7.01848L23.5186 6.57285L23.5283 6.55836L24.169 5.67745C24.5032 5.25183 24.8577 4.80413 25.0447 4.39851L25.0507 4.36471L25.267 3.96322L25.6103 3.1106H26.3651C26.3651 3.54036 26.1495 3.93011 25.9407 4.28538L25.747 4.65857H25.7357V4.67858C25.5156 5.14904 25.1371 5.62019 24.7811 6.07824L24.1848 6.90534C24.1014 7.044 23.5509 7.69865 23.1761 8.0615L22.8689 8.29466L22.22 8.22706L22.1381 7.95733C22.1381 7.48825 22.3236 7.08677 22.4964 6.67081L22.7464 5.98925V5.97546C22.9117 5.37186 23.2737 4.62546 23.7101 3.9922L23.9677 3.63763L24.2321 3.32375L24.8179 3.76386ZM25.7455 4.6572H25.7342V4.66685L25.7455 4.6572Z" fill="#F7712F"/>
<path d="M25.8068 10.9912L24.7521 11.4202L23.7535 12.2419L23.6292 12.3587L23.4974 12.504L22.9428 13.1666C23.092 13.7652 23.0451 14.409 22.9837 15.0361L22.9215 15.9649C22.9215 16.4022 22.9041 16.868 22.8852 17.3283C22.8746 17.7913 22.8594 18.2641 22.8594 18.6861C22.8594 19.3159 22.4601 19.6364 22.0472 19.9813L21.579 20.4172L20.9417 20.0355L21.5418 19.4515L22.0851 18.6854C22.0851 18.2383 22.1093 17.7691 22.1267 17.3032C22.1472 16.8458 22.1578 16.38 22.1578 15.9642C22.1578 15.6249 22.1874 15.2989 22.2184 14.9839C22.2654 14.3471 22.3359 13.7172 22.1714 13.2132L22.1957 12.9511L22.9215 12.0494L23.0655 11.8915L23.2163 11.756V11.7476C23.5292 11.4626 23.8937 11.1323 24.2998 10.8529C24.737 10.5484 25.2332 10.3231 25.7485 10.2883L25.8068 10.9912Z" fill="#F7712F"/>
<path d="M26.5951 10.2883C27.1053 10.3237 27.5896 10.5598 28.0315 10.8674C28.4469 11.1452 28.8063 11.4833 29.1254 11.7764L29.2595 11.9256L29.4187 12.0791L30.1237 13.004L30.148 13.2533C29.9994 13.7713 30.0615 14.4253 30.1237 15.0544C30.1328 15.3801 30.1707 15.7078 30.1707 16.0446C30.1707 16.4716 30.1874 16.9507 30.1965 17.4174C30.2169 17.8972 30.2329 18.3679 30.2329 18.82L30.7878 19.6095L31.3896 20.1913L30.7476 20.5767L30.2791 20.1247C29.8736 19.7886 29.4824 19.4574 29.4824 18.82C29.4824 18.3915 29.468 17.918 29.446 17.4472C29.4324 16.975 29.4187 16.4952 29.4187 16.0446L29.3573 15.1072C29.2952 14.4698 29.2338 13.8136 29.3839 13.2088L28.8282 12.5318L28.6971 12.3881L28.5879 12.2742C28.2893 11.9909 27.9376 11.675 27.5752 11.425L26.5246 10.9896L26.5951 10.2883Z" fill="#F7712F"/>
<path d="M27.0039 3.72038L27.2132 3.37352L27.3607 3.1106C28.1986 3.52822 28.9446 4.38427 29.5393 5.06065L29.7539 5.29513L29.7644 5.30762L29.8879 5.45538C30.3365 5.98261 30.3757 6.02701 30.0964 6.97325C29.9963 7.27918 29.6786 7.72663 29.3594 8.15605L28.8565 8.88515L28.5215 9.57194L28.8106 9.64894L29.2367 10.1491H28.4771L28.3446 10.2088L27.7333 9.5435V9.52892L27.786 9.3881L28.1436 8.72975L28.1903 8.57089L28.7406 7.76201C29.0041 7.37977 29.2969 6.98573 29.3586 6.78386C29.5386 6.18518 29.5311 6.1609 29.2969 5.89382L29.1637 5.73773L28.9574 5.50047C28.4064 4.87196 27.7093 4.08319 27.0031 3.73217L27.0039 3.72038Z" fill="#F7712F"/>
<path d="M25.0809 10.687H26.9465H27.3222V11.0331V25.332V25.6809H26.9465H25.0809H24.6903V25.332V11.0331V10.687H25.0809ZM26.5618 11.3821H25.4543V24.9817H26.5618V11.3821Z" fill="#F7712F"/>
<path d="M8.4985 11.2549C8.17072 11.2549 7.82933 11.301 7.46832 11.3778C7.10656 11.468 6.72669 11.5923 6.34605 11.7558C4.3703 12.5788 2.42702 14.2668 2.05317 15.9449L1.93613 16.8155L1.79411 17.7936C1.74728 18.2428 1.6544 18.7102 1.4316 19.0791C1.17255 19.4913 0.768483 19.7791 0.125763 19.7791V19.0644L0.763192 18.7221C0.918774 18.4699 0.996593 18.101 1.02756 17.7244C1.06532 17.3723 1.11138 17.0446 1.16954 16.7191L1.29944 15.8527V15.8443V15.8087C1.71181 13.9063 3.87486 12.0003 6.02733 11.097C6.44725 10.9237 6.87621 10.7791 7.28103 10.6862C7.70699 10.5849 8.1088 10.5276 8.50002 10.5276V11.2549H8.4985Z" fill="#F7712F"/>
</svg>
